<svg id="f808fc16-bac3-4bf4-b8b7-3aaf77bd7140" data-name="Calque 1" xmlns="http://www.w3.org/2000/svg" xmlns:xlink="http://www.w3.org/1999/xlink" width="548.55" height="542.69" viewBox="0 0 548.55 542.69">
  <defs>
    <style>
      .b5bdf594-747f-4d1f-8505-6c298d82ab4e {
        fill: #e9a461;
      }

      .bfeceb56-29b3-4b41-bd7e-2b6023541818 {
        fill: #90cfda;
      }

      .a4012b65-4b82-4b70-ab83-b8c872637f53 {
        fill: #63b995;
      }

      .b32072d1-edce-42f8-89ee-113d2bba7c40 {
        fill: #e5e5e5;
      }

      .f415e8b8-1160-4570-b4c2-a123e9c519d6 {
        fill: #c5ced0;
      }

      .fd483e61-f434-4013-8c34-5b97425c99d1 {
        fill: #ec7374;
      }

      .b39fd623-fc62-4d4b-b863-d4614c504bd7 {
        fill: #f2f2f2;
      }

      .fdf5e2ca-49aa-49e0-a1d6-952a198b4449 {
        fill: #c8e6ec;
      }

      .a2e03e02-27ef-43db-9d40-226335174a44 {
        fill: #027387;
      }

      .a778d141-2057-456a-9e90-8a32e09cbab9 {
        fill: #4e4d4d;
      }

      .a38a9f95-4f76-468e-b65d-c8d61205670c {
        fill: none;
        stroke: #50b7c9;
        stroke-miterlimit: 10;
        stroke-width: 3px;
      }

      .a2ba1869-dab3-4055-8089-a535f90a97d1 {
        fill: #50b7c9;
      }

      .a4830060-0e85-44c2-8094-1da4b9c6ee68 {
        fill: #868686;
      }
    </style>
    <symbol id="beeccd13-4939-4bd7-832e-3e6cbbcc9e1a" data-name="assay-protein-ovoid-blue" viewBox="0 0 34.33 48.46">
      <path class="bfeceb56-29b3-4b41-bd7e-2b6023541818" d="M34.33,24.23c0,13.38-7.69,24.23-17.17,24.23S0,37.61,0,24.23,7.68,0,17.16,0C22.6,0,27.45,3.57,30.59,9.14A30.85,30.85,0,0,1,34.33,24.23Z"/>
    </symbol>
    <symbol id="b6922ca8-aab5-4964-bed6-fb708acefaf3" data-name="assay-protein-orange" viewBox="0 0 34.33 48.46">
      <path class="b5bdf594-747f-4d1f-8505-6c298d82ab4e" d="M34.33,24.23c0,13.38-7.69,24.23-17.17,24.23S0,37.61,0,24.23,7.68,0,17.16,0C23.08,0,28.3,4.23,31.38,10.66A31.48,31.48,0,0,1,34.33,24.23Z"/>
    </symbol>
  </defs>
  <path class="a4012b65-4b82-4b70-ab83-b8c872637f53" d="M183.22,212.91a19.84,19.84,0,1,1-3.15-10.73A19.85,19.85,0,0,1,183.22,212.91Z"/>
  <use width="34.33" height="48.46" transform="translate(128.43 139.63) rotate(90) scale(1.22)" xlink:href="#beeccd13-4939-4bd7-832e-3e6cbbcc9e1a"/>
  <g>
    <g>
      <path class="b32072d1-edce-42f8-89ee-113d2bba7c40" d="M25.39,159.05a5.77,5.77,0,0,1,1.71,4,6.1,6.1,0,0,1-1.55,4.07,5.85,5.85,0,0,1-8.1.5,5.7,5.7,0,0,1-.28-8.2,5.77,5.77,0,0,1,4.13-1.94A5.48,5.48,0,0,1,25.39,159.05Z"/>
      <path class="f415e8b8-1160-4570-b4c2-a123e9c519d6" d="M33.52,167A5.89,5.89,0,0,1,35.29,171a5.43,5.43,0,0,1-1.37,3.87,5.66,5.66,0,0,1-7.84.23,5.51,5.51,0,0,1-.53-7.92,5.24,5.24,0,0,1,3.95-1.76A5.68,5.68,0,0,1,33.52,167Z"/>
    </g>
    <g>
      <path class="b32072d1-edce-42f8-89ee-113d2bba7c40" d="M33.8,151a5.84,5.84,0,0,1-8.41,8.09A5.84,5.84,0,0,1,33.8,151Z"/>
      <path class="f415e8b8-1160-4570-b4c2-a123e9c519d6" d="M41.42,159.4a5.49,5.49,0,1,1-7.9,7.61,5.49,5.49,0,1,1,7.9-7.61Z"/>
    </g>
    <g>
      <path class="b32072d1-edce-42f8-89ee-113d2bba7c40" d="M42.66,143.41A5.82,5.82,0,0,1,33.8,151a5.82,5.82,0,0,1,8.86-7.55Z"/>
      <path class="f415e8b8-1160-4570-b4c2-a123e9c519d6" d="M49.8,152.27a5.5,5.5,0,1,1-8.38,7.13,5.51,5.51,0,1,1,8.38-7.13Z"/>
    </g>
    <g>
      <path class="b32072d1-edce-42f8-89ee-113d2bba7c40" d="M51.89,136.35a5.81,5.81,0,0,1-9.23,7.06,5.66,5.66,0,0,1,1.13-8.1,5.91,5.91,0,0,1,4.34-1.2A5.48,5.48,0,0,1,51.89,136.35Z"/>
      <path class="f415e8b8-1160-4570-b4c2-a123e9c519d6" d="M58.56,145.57a5.92,5.92,0,0,1,1.07,4.19,5.32,5.32,0,0,1-2,3.63,5.7,5.7,0,0,1-7.79-1.12,5.52,5.52,0,1,1,8.76-6.7Z"/>
    </g>
    <g>
      <path class="b32072d1-edce-42f8-89ee-113d2bba7c40" d="M61.46,129.8a5.8,5.8,0,0,1-9.57,6.55,5.8,5.8,0,0,1,9.57-6.55Z"/>
      <path class="f415e8b8-1160-4570-b4c2-a123e9c519d6" d="M67.67,139.33a5.52,5.52,0,1,1-9.11,6.24,5.53,5.53,0,1,1,9.11-6.24Z"/>
    </g>
    <g>
      <path class="b32072d1-edce-42f8-89ee-113d2bba7c40" d="M71.3,123.69a5.79,5.79,0,0,1-9.84,6.11,5.79,5.79,0,0,1,9.84-6.11Z"/>
      <path class="f415e8b8-1160-4570-b4c2-a123e9c519d6" d="M77.07,133.49a5.53,5.53,0,1,1-9.4,5.84,5.54,5.54,0,1,1,9.4-5.84Z"/>
    </g>
    <g>
      <path class="b32072d1-edce-42f8-89ee-113d2bba7c40" d="M81.4,118.05a5.79,5.79,0,0,1-10.1,5.64,5.78,5.78,0,0,1,10.1-5.64Z"/>
      <path class="f415e8b8-1160-4570-b4c2-a123e9c519d6" d="M86.75,128.09a5.54,5.54,0,1,1-9.68,5.4,5.55,5.55,0,1,1,9.68-5.4Z"/>
    </g>
    <g>
      <path class="b32072d1-edce-42f8-89ee-113d2bba7c40" d="M91.68,112.81a5.77,5.77,0,0,1-10.28,5.24,5.77,5.77,0,0,1,10.28-5.24Z"/>
      <path class="f415e8b8-1160-4570-b4c2-a123e9c519d6" d="M96.63,123.05a5.55,5.55,0,1,1-9.88,5,5.55,5.55,0,1,1,9.88-5Z"/>
    </g>
    <g>
      <path class="b32072d1-edce-42f8-89ee-113d2bba7c40" d="M102.17,108a5.77,5.77,0,0,1-10.49,4.81A5.77,5.77,0,0,1,102.17,108Z"/>
      <path class="f415e8b8-1160-4570-b4c2-a123e9c519d6" d="M106.73,118.41a5.56,5.56,0,1,1-10.1,4.64,5.56,5.56,0,1,1,10.1-4.64Z"/>
    </g>
    <g>
      <path class="b32072d1-edce-42f8-89ee-113d2bba7c40" d="M112.8,103.56a5.76,5.76,0,1,1-7.53-3.1A5.72,5.72,0,0,1,112.8,103.56Z"/>
      <path class="f415e8b8-1160-4570-b4c2-a123e9c519d6" d="M117,114.13a5.57,5.57,0,1,1-7.35-3.17A5.63,5.63,0,0,1,117,114.13Z"/>
    </g>
    <g>
      <path class="b32072d1-edce-42f8-89ee-113d2bba7c40" d="M123.56,99.47a5.76,5.76,0,0,1-10.76,4.09,5.76,5.76,0,0,1,10.76-4.09Z"/>
      <path class="f415e8b8-1160-4570-b4c2-a123e9c519d6" d="M127.41,110.18A5.57,5.57,0,1,1,117,114.13a5.57,5.57,0,1,1,10.41-3.95Z"/>
    </g>
    <g>
      <path class="b32072d1-edce-42f8-89ee-113d2bba7c40" d="M134.45,95.78a5.75,5.75,0,0,1-10.89,3.69,5.75,5.75,0,0,1,10.89-3.69Z"/>
      <path class="f415e8b8-1160-4570-b4c2-a123e9c519d6" d="M138,106.6a5.57,5.57,0,1,1-10.55,3.58A5.57,5.57,0,1,1,138,106.6Z"/>
    </g>
    <g>
      <path class="b32072d1-edce-42f8-89ee-113d2bba7c40" d="M145.44,92.4a5.75,5.75,0,1,1-7.18-3.81A5.71,5.71,0,0,1,145.44,92.4Z"/>
      <path class="f415e8b8-1160-4570-b4c2-a123e9c519d6" d="M148.62,103.32a5.58,5.58,0,1,1-7-3.86A5.64,5.64,0,0,1,148.62,103.32Z"/>
    </g>
    <g>
      <path class="b32072d1-edce-42f8-89ee-113d2bba7c40" d="M156.51,89.34a5.74,5.74,0,0,1-11.07,3.06,5.74,5.74,0,0,1,11.07-3.06Z"/>
      <path class="f415e8b8-1160-4570-b4c2-a123e9c519d6" d="M159.37,100.34a5.58,5.58,0,1,1-10.75,3,5.58,5.58,0,1,1,10.75-3Z"/>
    </g>
    <g>
      <path class="b32072d1-edce-42f8-89ee-113d2bba7c40" d="M167.67,86.62a5.74,5.74,0,0,1-11.16,2.72,5.74,5.74,0,0,1,11.16-2.72Z"/>
      <path class="f415e8b8-1160-4570-b4c2-a123e9c519d6" d="M170.22,97.7a5.58,5.58,0,1,1-10.85,2.64,5.58,5.58,0,1,1,10.85-2.64Z"/>
    </g>
    <g>
      <path class="b32072d1-edce-42f8-89ee-113d2bba7c40" d="M178.89,84.2a5.74,5.74,0,1,1-6.82-4.4A5.74,5.74,0,0,1,178.89,84.2Z"/>
      <path class="f415e8b8-1160-4570-b4c2-a123e9c519d6" d="M181.14,95.34a5.59,5.59,0,1,1-6.67-4.42A5.65,5.65,0,0,1,181.14,95.34Z"/>
    </g>
    <g>
      <path class="b32072d1-edce-42f8-89ee-113d2bba7c40" d="M190.16,82.06a5.74,5.74,0,1,1-6.7-4.57A5.73,5.73,0,0,1,190.16,82.06Z"/>
      <path class="f415e8b8-1160-4570-b4c2-a123e9c519d6" d="M192.12,93.26a5.59,5.59,0,1,1-6.55-4.59A5.65,5.65,0,0,1,192.12,93.26Z"/>
    </g>
    <g>
      <path class="b32072d1-edce-42f8-89ee-113d2bba7c40" d="M201.47,80.21a5.73,5.73,0,0,1-11.31,1.85,5.73,5.73,0,0,1,11.31-1.85Z"/>
      <path class="f415e8b8-1160-4570-b4c2-a123e9c519d6" d="M203.15,91.46a5.59,5.59,0,1,1-11,1.8,5.59,5.59,0,1,1,11-1.8Z"/>
    </g>
    <g>
      <path class="b32072d1-edce-42f8-89ee-113d2bba7c40" d="M212.83,78.67a5.73,5.73,0,0,1-11.36,1.54,5.73,5.73,0,0,1,11.36-1.54Z"/>
      <path class="f415e8b8-1160-4570-b4c2-a123e9c519d6" d="M214.24,90a5.6,5.6,0,1,1-11.09,1.5A5.6,5.6,0,1,1,214.24,90Z"/>
    </g>
    <g>
      <path class="b32072d1-edce-42f8-89ee-113d2bba7c40" d="M224.23,77.4a5.74,5.74,0,1,1-6.34-5.06A5.72,5.72,0,0,1,224.23,77.4Z"/>
      <path class="f415e8b8-1160-4570-b4c2-a123e9c519d6" d="M225.35,88.72a5.59,5.59,0,1,1-6.19-5.08A5.64,5.64,0,0,1,225.35,88.72Z"/>
    </g>
    <g>
      <path class="b32072d1-edce-42f8-89ee-113d2bba7c40" d="M235.64,76.4a5.73,5.73,0,1,1-6.21-5.21A5.71,5.71,0,0,1,235.64,76.4Z"/>
      <path class="f415e8b8-1160-4570-b4c2-a123e9c519d6" d="M236.5,87.74a5.6,5.6,0,1,1-6.07-5.22A5.65,5.65,0,0,1,236.5,87.74Z"/>
    </g>
    <g>
      <path class="b32072d1-edce-42f8-89ee-113d2bba7c40" d="M247.07,75.65a5.73,5.73,0,0,1-11.43.75,5.73,5.73,0,0,1,11.43-.75Z"/>
      <path class="f415e8b8-1160-4570-b4c2-a123e9c519d6" d="M247.66,87a5.59,5.59,0,1,1-11.16.73A5.59,5.59,0,1,1,247.66,87Z"/>
    </g>
    <g>
      <path class="b32072d1-edce-42f8-89ee-113d2bba7c40" d="M258.52,75.21a5.73,5.73,0,0,1-11.45.44,5.73,5.73,0,0,1,11.45-.44Z"/>
      <path class="f415e8b8-1160-4570-b4c2-a123e9c519d6" d="M258.84,86.58a5.59,5.59,0,1,1-11.18.43,5.6,5.6,0,1,1,11.18-.43Z"/>
    </g>
    <g>
      <path class="b32072d1-edce-42f8-89ee-113d2bba7c40" d="M270,75a5.73,5.73,0,1,1-5.83-5.63A5.73,5.73,0,0,1,270,75Z"/>
      <path class="f415e8b8-1160-4570-b4c2-a123e9c519d6" d="M270,86.4a5.6,5.6,0,1,1-5.69-5.64A5.61,5.61,0,0,1,270,86.4Z"/>
    </g>
    <g>
      <path class="b32072d1-edce-42f8-89ee-113d2bba7c40" d="M281.43,75.1a5.73,5.73,0,1,1-5.69-5.78A5.7,5.7,0,0,1,281.43,75.1Z"/>
      <path class="f415e8b8-1160-4570-b4c2-a123e9c519d6" d="M281.23,86.47a5.6,5.6,0,1,1-5.56-5.77A5.64,5.64,0,0,1,281.23,86.47Z"/>
    </g>
    <g>
      <path class="b32072d1-edce-42f8-89ee-113d2bba7c40" d="M292.88,75.43a5.73,5.73,0,0,1-11.45-.33,5.73,5.73,0,0,1,11.45.33Z"/>
      <path class="f415e8b8-1160-4570-b4c2-a123e9c519d6" d="M292.41,86.79a5.59,5.59,0,1,1-11.18-.32,5.59,5.59,0,1,1,11.18.32Z"/>
    </g>
    <g>
      <path class="b32072d1-edce-42f8-89ee-113d2bba7c40" d="M304.32,76a5.73,5.73,0,0,1-11.44-.6,5.73,5.73,0,0,1,11.44.6Z"/>
      <path class="f415e8b8-1160-4570-b4c2-a123e9c519d6" d="M303.59,87.38a5.6,5.6,0,1,1-11.18-.59,5.6,5.6,0,1,1,11.18.59Z"/>
    </g>
    <g>
      <path class="b32072d1-edce-42f8-89ee-113d2bba7c40" d="M315.75,76.93a5.73,5.73,0,0,1-11.43-.9,5.73,5.73,0,0,1,11.43.9Z"/>
      <path class="f415e8b8-1160-4570-b4c2-a123e9c519d6" d="M314.74,88.25a5.59,5.59,0,1,1-11.15-.87,5.59,5.59,0,1,1,11.15.87Z"/>
    </g>
    <g>
      <path class="b32072d1-edce-42f8-89ee-113d2bba7c40" d="M327.15,78.08A5.73,5.73,0,1,1,322,71.8,5.71,5.71,0,0,1,327.15,78.08Z"/>
      <path class="f415e8b8-1160-4570-b4c2-a123e9c519d6" d="M325.87,89.38a5.6,5.6,0,1,1-5-6.27A5.65,5.65,0,0,1,325.87,89.38Z"/>
    </g>
    <g>
      <path class="b32072d1-edce-42f8-89ee-113d2bba7c40" d="M338.52,79.5a5.73,5.73,0,1,1-5-6.4A5.71,5.71,0,0,1,338.52,79.5Z"/>
      <path class="f415e8b8-1160-4570-b4c2-a123e9c519d6" d="M337,90.77a5.59,5.59,0,1,1-4.84-6.38A5.64,5.64,0,0,1,337,90.77Z"/>
    </g>
    <g>
      <path class="b32072d1-edce-42f8-89ee-113d2bba7c40" d="M349.86,81.19a5.73,5.73,0,0,1-11.34-1.69,5.73,5.73,0,0,1,11.34,1.69Z"/>
      <path class="f415e8b8-1160-4570-b4c2-a123e9c519d6" d="M348,92.41A5.59,5.59,0,1,1,337,90.77,5.59,5.59,0,1,1,348,92.41Z"/>
    </g>
    <g>
      <path class="b32072d1-edce-42f8-89ee-113d2bba7c40" d="M361.15,83.18a5.73,5.73,0,0,1-11.29-2,5.73,5.73,0,0,1,11.29,2Z"/>
      <path class="f415e8b8-1160-4570-b4c2-a123e9c519d6" d="M359,94.36a5.59,5.59,0,1,1-11-2,5.59,5.59,0,1,1,11,2Z"/>
    </g>
    <g>
      <path class="b32072d1-edce-42f8-89ee-113d2bba7c40" d="M372.39,85.46a5.73,5.73,0,1,1-4.48-6.75A5.67,5.67,0,0,1,372.39,85.46Z"/>
      <path class="f415e8b8-1160-4570-b4c2-a123e9c519d6" d="M370,96.58a5.59,5.59,0,1,1-11-2.22,5.59,5.59,0,1,1,11,2.22Z"/>
    </g>
    <g>
      <path class="b32072d1-edce-42f8-89ee-113d2bba7c40" d="M383.58,88a5.74,5.74,0,1,1-4.31-6.88A5.72,5.72,0,0,1,383.58,88Z"/>
      <path class="f415e8b8-1160-4570-b4c2-a123e9c519d6" d="M380.89,99.08a5.59,5.59,0,1,1-4.16-6.85A5.63,5.63,0,0,1,380.89,99.08Z"/>
    </g>
    <g>
      <path class="b32072d1-edce-42f8-89ee-113d2bba7c40" d="M394.69,90.88A5.74,5.74,0,0,1,383.58,88a5.74,5.74,0,0,1,11.11,2.86Z"/>
      <path class="f415e8b8-1160-4570-b4c2-a123e9c519d6" d="M391.71,101.85a5.58,5.58,0,1,1-10.82-2.77,5.59,5.59,0,1,1,10.82,2.77Z"/>
    </g>
    <g>
      <path class="b32072d1-edce-42f8-89ee-113d2bba7c40" d="M405.73,94.05a5.74,5.74,0,0,1-11-3.17,5.74,5.74,0,0,1,11,3.17Z"/>
      <path class="f415e8b8-1160-4570-b4c2-a123e9c519d6" d="M402.44,104.93a5.58,5.58,0,1,1-10.73-3.08,5.58,5.58,0,1,1,10.73,3.08Z"/>
    </g>
    <g>
      <path class="b32072d1-edce-42f8-89ee-113d2bba7c40" d="M416.67,97.55a5.74,5.74,0,0,1-10.94-3.5,5.74,5.74,0,0,1,10.94,3.5Z"/>
      <path class="f415e8b8-1160-4570-b4c2-a123e9c519d6" d="M413.06,108.33a5.58,5.58,0,1,1-10.62-3.4,5.58,5.58,0,1,1,10.62,3.4Z"/>
    </g>
    <g>
      <path class="b32072d1-edce-42f8-89ee-113d2bba7c40" d="M427.52,101.36A5.75,5.75,0,1,1,424,94,5.71,5.71,0,0,1,427.52,101.36Z"/>
      <path class="f415e8b8-1160-4570-b4c2-a123e9c519d6" d="M423.58,112a5.58,5.58,0,1,1-3.35-7.28A5.62,5.62,0,0,1,423.58,112Z"/>
    </g>
    <g>
      <path class="b32072d1-edce-42f8-89ee-113d2bba7c40" d="M438.25,105.49a5.75,5.75,0,0,1-10.73-4.13,5.75,5.75,0,0,1,10.73,4.13Z"/>
      <path class="f415e8b8-1160-4570-b4c2-a123e9c519d6" d="M434,116a5.58,5.58,0,1,1-10.41-4A5.58,5.58,0,1,1,434,116Z"/>
    </g>
    <g>
      <path class="b32072d1-edce-42f8-89ee-113d2bba7c40" d="M448.85,110a5.75,5.75,0,0,1-10.6-4.48,5.75,5.75,0,0,1,10.6,4.48Z"/>
      <path class="f415e8b8-1160-4570-b4c2-a123e9c519d6" d="M444.24,120.38A5.57,5.57,0,1,1,434,116a5.57,5.57,0,1,1,10.25,4.35Z"/>
    </g>
    <g>
      <path class="b32072d1-edce-42f8-89ee-113d2bba7c40" d="M459.29,114.83A5.76,5.76,0,0,1,448.85,110a5.76,5.76,0,0,1,10.44,4.86Z"/>
      <path class="f415e8b8-1160-4570-b4c2-a123e9c519d6" d="M454.34,125.06a5.57,5.57,0,1,1-10.1-4.68,5.57,5.57,0,1,1,10.1,4.68Z"/>
    </g>
    <g>
      <path class="b32072d1-edce-42f8-89ee-113d2bba7c40" d="M469.58,120a5.76,5.76,0,1,1-2.55-7.74A5.75,5.75,0,0,1,469.58,120Z"/>
      <path class="f415e8b8-1160-4570-b4c2-a123e9c519d6" d="M464.27,130.08a5.57,5.57,0,1,1-2.37-7.64A5.64,5.64,0,0,1,464.27,130.08Z"/>
    </g>
    <g>
      <path class="b32072d1-edce-42f8-89ee-113d2bba7c40" d="M479.69,125.57A5.77,5.77,0,0,1,469.58,120a5.77,5.77,0,0,1,10.11,5.55Z"/>
      <path class="f415e8b8-1160-4570-b4c2-a123e9c519d6" d="M474,135.43a5.56,5.56,0,1,1-9.74-5.35,5.56,5.56,0,1,1,9.74,5.35Z"/>
    </g>
    <g>
      <path class="b32072d1-edce-42f8-89ee-113d2bba7c40" d="M489.56,131.55a5.77,5.77,0,0,1-9.87-6,5.77,5.77,0,0,1,9.87,6Z"/>
      <path class="f415e8b8-1160-4570-b4c2-a123e9c519d6" d="M483.5,141.18a5.55,5.55,0,1,1-9.49-5.75,5.55,5.55,0,1,1,9.49,5.75Z"/>
    </g>
    <g>
      <path class="b32072d1-edce-42f8-89ee-113d2bba7c40" d="M499.21,137.9a5.78,5.78,0,1,1-1.65-8A5.72,5.72,0,0,1,499.21,137.9Z"/>
      <path class="f415e8b8-1160-4570-b4c2-a123e9c519d6" d="M492.77,147.27a5.55,5.55,0,1,1-1.46-7.87A5.61,5.61,0,0,1,492.77,147.27Z"/>
    </g>
    <g>
      <path class="b32072d1-edce-42f8-89ee-113d2bba7c40" d="M508.62,144.62a5.78,5.78,0,0,1-9.41-6.72,5.78,5.78,0,0,1,9.41,6.72Z"/>
      <path class="f415e8b8-1160-4570-b4c2-a123e9c519d6" d="M501.79,153.72a5.55,5.55,0,1,1-9-6.45,5.55,5.55,0,1,1,9,6.45Z"/>
    </g>
    <g>
      <path class="b32072d1-edce-42f8-89ee-113d2bba7c40" d="M517.7,151.8a5.79,5.79,0,0,1-9.08-7.18,5.79,5.79,0,0,1,9.08,7.18Z"/>
      <path class="f415e8b8-1160-4570-b4c2-a123e9c519d6" d="M510.48,160.58a5.54,5.54,0,1,1-8.69-6.86,5.54,5.54,0,1,1,8.69,6.86Z"/>
    </g>
    <g>
      <path class="b32072d1-edce-42f8-89ee-113d2bba7c40" d="M526.48,159.36a5.79,5.79,0,1,1-.62-8.16A5.74,5.74,0,0,1,526.48,159.36Z"/>
      <path class="f415e8b8-1160-4570-b4c2-a123e9c519d6" d="M518.85,167.8a5.53,5.53,0,1,1-.41-8A5.59,5.59,0,0,1,518.85,167.8Z"/>
    </g>
    <g>
      <path class="b32072d1-edce-42f8-89ee-113d2bba7c40" d="M534.92,167.31a5.8,5.8,0,0,1-8.44-7.95,5.8,5.8,0,0,1,8.44,7.95Z"/>
      <path class="f415e8b8-1160-4570-b4c2-a123e9c519d6" d="M526.9,175.38a5.53,5.53,0,1,1-8-7.58,5.53,5.53,0,1,1,8,7.58Z"/>
    </g>
  </g>
  <rect class="fd483e61-f434-4013-8c34-5b97425c99d1" x="119.94" y="496.75" width="320.83" height="32.26" rx="5"/>
  <g>
    <path class="b39fd623-fc62-4d4b-b863-d4614c504bd7" d="M176.35,518a4.37,4.37,0,0,1-2.31-.51,2.89,2.89,0,0,1-1.18-1.34,5.41,5.41,0,0,1-.43-1.91c-.05-.72-.07-1.45-.07-2.21s0-1.51.07-2.22a5.36,5.36,0,0,1,.43-1.91,2.91,2.91,0,0,1,1.18-1.33,4.37,4.37,0,0,1,2.31-.51,3.22,3.22,0,0,1,2.65,1,4.2,4.2,0,0,1,.71,2.85h-2.37a4.4,4.4,0,0,0-.22-1.63.8.8,0,0,0-.77-.48,1.22,1.22,0,0,0-.82.25,1.49,1.49,0,0,0-.46.76,5.36,5.36,0,0,0-.21,1.32c0,.54-.05,1.17-.05,1.91s0,1.37.05,1.91a5.36,5.36,0,0,0,.21,1.32,1.49,1.49,0,0,0,.46.76,1.22,1.22,0,0,0,.82.25A.84.84,0,0,0,177,516a1.47,1.47,0,0,0,.32-.59,3.66,3.66,0,0,0,.11-.77q0-.42,0-.75h2.38a7.07,7.07,0,0,1-.22,1.93,3,3,0,0,1-.67,1.27,2.56,2.56,0,0,1-1.1.68A5.17,5.17,0,0,1,176.35,518Z"/>
    <path class="b39fd623-fc62-4d4b-b863-d4614c504bd7" d="M183.32,514.09q0,.36,0,.78a3.18,3.18,0,0,0,.12.78,1.42,1.42,0,0,0,.3.6.74.74,0,0,0,.58.24.92.92,0,0,0,.5-.13,1,1,0,0,0,.29-.34,1.65,1.65,0,0,0,.14-.46,2.92,2.92,0,0,0,0-.51h2.29a2.67,2.67,0,0,1-1.86,2.67,4.11,4.11,0,0,1-1.39.21,4.06,4.06,0,0,1-1.74-.32,2.35,2.35,0,0,1-1-.89,3.47,3.47,0,0,1-.45-1.36,13.38,13.38,0,0,1-.1-1.74,13,13,0,0,1,.09-1.57,3.55,3.55,0,0,1,.43-1.31,2.42,2.42,0,0,1,1-.89,4,4,0,0,1,1.77-.32,3.86,3.86,0,0,1,1.81.35,2.35,2.35,0,0,1,1,1,3.81,3.81,0,0,1,.42,1.44,13.07,13.07,0,0,1,.06,1.81Zm2.08-1.27c0-.19,0-.4,0-.62a2.13,2.13,0,0,0-.1-.63,1,1,0,0,0-.32-.47.94.94,0,0,0-.62-.18.8.8,0,0,0-.59.2,1.25,1.25,0,0,0-.31.49,2.6,2.6,0,0,0-.11.63c0,.22,0,.41,0,.58Z"/>
    <path class="b39fd623-fc62-4d4b-b863-d4614c504bd7" d="M191.71,506.21v11.56h-2.26V506.21Z"/>
    <path class="b39fd623-fc62-4d4b-b863-d4614c504bd7" d="M196.17,506.21v11.56h-2.25V506.21Z"/>
    <path class="b39fd623-fc62-4d4b-b863-d4614c504bd7" d="M207.9,509.69v8.41c0,.14,0,.36,0,.67a2.19,2.19,0,0,1-.33.92,2.47,2.47,0,0,1-.91.83,3.79,3.79,0,0,1-1.79.35,6.62,6.62,0,0,1-1.2-.1,2.71,2.71,0,0,1-1-.36,1.94,1.94,0,0,1-.69-.73,2.54,2.54,0,0,1-.28-1.21h2.21a2.13,2.13,0,0,0,0,.46.73.73,0,0,0,.15.36.86.86,0,0,0,.75.32.67.67,0,0,0,.62-.37,2,2,0,0,0,.21-1v-1.55h0a1.69,1.69,0,0,1-.7.7,2.12,2.12,0,0,1-1,.24,2.25,2.25,0,0,1-1.42-.38,2.07,2.07,0,0,1-.69-1,4.55,4.55,0,0,1-.24-1.32c0-.48,0-1,0-1.41s0-.91,0-1.39a4.35,4.35,0,0,1,.27-1.29,2.38,2.38,0,0,1,.71-1,2.12,2.12,0,0,1,1.36-.38,2.18,2.18,0,0,1,1.09.27,1.69,1.69,0,0,1,.72.83h0v-.94ZM203.74,514v.68a3.11,3.11,0,0,0,.08.76,1.29,1.29,0,0,0,.28.6.81.81,0,0,0,1.38-.38,8.3,8.3,0,0,0,.16-1.93c0-.45,0-.84,0-1.18a4.8,4.8,0,0,0-.12-.87,1.29,1.29,0,0,0-.28-.55.67.67,0,0,0-.49-.18.88.88,0,0,0-.51.13.86.86,0,0,0-.31.47,4,4,0,0,0-.14.93C203.75,512.85,203.74,513.35,203.74,514Z"/>
    <path class="b39fd623-fc62-4d4b-b863-d4614c504bd7" d="M211.87,509.69v1h0a1.83,1.83,0,0,1,.86-1,3.07,3.07,0,0,1,1.23-.24v2a2.78,2.78,0,0,0-1.16.12,1.29,1.29,0,0,0-.6.45,1.36,1.36,0,0,0-.22.62c0,.22,0,.43,0,.64v4.4h-2.26v-8.08Z"/>
    <path class="b39fd623-fc62-4d4b-b863-d4614c504bd7" d="M218.15,517.93a4.06,4.06,0,0,1-1.74-.32,2.35,2.35,0,0,1-1-.89,3.47,3.47,0,0,1-.45-1.36,13.38,13.38,0,0,1-.1-1.74,13,13,0,0,1,.09-1.57,3.38,3.38,0,0,1,.44-1.31,2.33,2.33,0,0,1,1-.89,5.08,5.08,0,0,1,3.55,0,2.33,2.33,0,0,1,1,.89,3.22,3.22,0,0,1,.43,1.31,11.2,11.2,0,0,1,.1,1.57,13.38,13.38,0,0,1-.1,1.74,3.47,3.47,0,0,1-.45,1.36,2.35,2.35,0,0,1-1,.89A4.08,4.08,0,0,1,218.15,517.93Zm0-1.44a1,1,0,0,0,.52-.12.85.85,0,0,0,.32-.45,4.91,4.91,0,0,0,.16-.91c0-.39,0-.9,0-1.52,0-.41,0-.78,0-1.1a2.73,2.73,0,0,0-.14-.79.92.92,0,0,0-.32-.47,1.06,1.06,0,0,0-1.12,0,1,1,0,0,0-.32.47,2.76,2.76,0,0,0-.13.79c0,.32,0,.69,0,1.1,0,.62,0,1.13,0,1.52a4.19,4.19,0,0,0,.16.91.84.84,0,0,0,.31.45A1,1,0,0,0,218.15,516.49Z"/>
    <path class="b39fd623-fc62-4d4b-b863-d4614c504bd7" d="M222.33,509.69h2.24l1.1,6.08h0l1.55-6.08h2.33l1.43,6.08h0l1.22-6.08h2.16l-2.2,8.08h-2.36l-1.46-5.52h0l-1.63,5.52h-2.4Z"/>
    <path class="b39fd623-fc62-4d4b-b863-d4614c504bd7" d="M234.59,509.69h.91v-1.28l2.25-1v2.29h1.17v1.39h-1.17v4.32c0,.15,0,.29,0,.41a.89.89,0,0,0,.07.32.43.43,0,0,0,.22.2,1,1,0,0,0,.42.08h.22a.58.58,0,0,0,.19,0v1.4l-.49.05a6.39,6.39,0,0,1-.68,0,2.72,2.72,0,0,1-1.17-.21,1.85,1.85,0,0,1-.66-.5,1.47,1.47,0,0,1-.31-.59,2.11,2.11,0,0,1-.07-.5v-5h-.91Z"/>
    <path class="b39fd623-fc62-4d4b-b863-d4614c504bd7" d="M243.91,517.77V512.2a2.4,2.4,0,0,0-.15-.91.65.65,0,0,0-.69-.37c-.37,0-.6.12-.7.37a2.4,2.4,0,0,0-.15.91v5.57H240V506.21h2.26v4.29h0a1.85,1.85,0,0,1,.8-.75,2.72,2.72,0,0,1,1.87-.1,1.87,1.87,0,0,1,.64.34,1.7,1.7,0,0,1,.44.55,1.66,1.66,0,0,1,.17.75v6.48Z"/>
    <path class="b39fd623-fc62-4d4b-b863-d4614c504bd7" d="M248.12,515.65h2.1L249,519.32h-1.53Z"/>
    <path class="b39fd623-fc62-4d4b-b863-d4614c504bd7" d="M255.19,506.21h4.36a3.71,3.71,0,0,1,1.41.24,2.34,2.34,0,0,1,1,.7,2.77,2.77,0,0,1,.54,1.1,5.64,5.64,0,0,1,.17,1.42,6.38,6.38,0,0,1-.11,1.09,2.83,2.83,0,0,1-.44,1.1,2.64,2.64,0,0,1-1,.86,3.59,3.59,0,0,1-1.7.34h-1.79v4.71h-2.42Zm2.42,5.08H259a1,1,0,0,0,.5-.14,1.27,1.27,0,0,0,.38-.35,1.67,1.67,0,0,0,.25-.5,1.79,1.79,0,0,0,.09-.57,3.63,3.63,0,0,0-.06-.67,1.44,1.44,0,0,0-.2-.56,1.08,1.08,0,0,0-.42-.37,1.46,1.46,0,0,0-.66-.14h-1.22Z"/>
    <path class="b39fd623-fc62-4d4b-b863-d4614c504bd7" d="M266.11,509.69v1h0a1.83,1.83,0,0,1,.86-1,3,3,0,0,1,1.23-.24v2a2.78,2.78,0,0,0-1.16.12,1.29,1.29,0,0,0-.6.45,1.36,1.36,0,0,0-.22.62c0,.22,0,.43,0,.64v4.4H264v-8.08Z"/>
    <path class="b39fd623-fc62-4d4b-b863-d4614c504bd7" d="M272.39,517.93a4.06,4.06,0,0,1-1.74-.32,2.35,2.35,0,0,1-1-.89,3.47,3.47,0,0,1-.45-1.36,13.38,13.38,0,0,1-.1-1.74,13,13,0,0,1,.09-1.57,3.38,3.38,0,0,1,.44-1.31,2.33,2.33,0,0,1,1-.89,4,4,0,0,1,1.77-.32,4,4,0,0,1,1.78.32,2.33,2.33,0,0,1,1,.89,3.22,3.22,0,0,1,.43,1.31,11.2,11.2,0,0,1,.1,1.57,13.38,13.38,0,0,1-.1,1.74,3.47,3.47,0,0,1-.45,1.36,2.35,2.35,0,0,1-1,.89A4.08,4.08,0,0,1,272.39,517.93Zm0-1.44a1,1,0,0,0,.52-.12.85.85,0,0,0,.32-.45,4.91,4.91,0,0,0,.16-.91c0-.39,0-.9,0-1.52,0-.41,0-.78,0-1.1a2.73,2.73,0,0,0-.14-.79.92.92,0,0,0-.32-.47.87.87,0,0,0-.56-.16.85.85,0,0,0-.56.16,1,1,0,0,0-.32.47,2.76,2.76,0,0,0-.13.79c0,.32,0,.69,0,1.1,0,.62,0,1.13,0,1.52a4.19,4.19,0,0,0,.16.91.84.84,0,0,0,.31.45A1,1,0,0,0,272.39,516.49Z"/>
    <path class="b39fd623-fc62-4d4b-b863-d4614c504bd7" d="M279.74,506.21v11.56h-2.26V506.21Z"/>
    <path class="b39fd623-fc62-4d4b-b863-d4614c504bd7" d="M284.2,506.21V508H282v-1.78Zm0,11.56H282v-8.08h2.25Z"/>
    <path class="b39fd623-fc62-4d4b-b863-d4614c504bd7" d="M289.67,507.61c-.46,0-.75,0-.89.22a1.44,1.44,0,0,0-.21.88v1h1.06v1.39h-1.06v6.69h-2.26v-6.69h-1v-1.39h1c0-.58,0-1.09,0-1.53a2.55,2.55,0,0,1,.22-1.11,1.4,1.4,0,0,1,.75-.68,3.91,3.91,0,0,1,1.56-.24h.4l.4,0Z"/>
    <path class="b39fd623-fc62-4d4b-b863-d4614c504bd7" d="M292.71,514.09q0,.36,0,.78a3.18,3.18,0,0,0,.12.78,1.42,1.42,0,0,0,.3.6.75.75,0,0,0,.59.24.91.91,0,0,0,.49-.13,1,1,0,0,0,.29-.34,1.37,1.37,0,0,0,.14-.46,2.92,2.92,0,0,0,0-.51H297a2.67,2.67,0,0,1-1.86,2.67,4.11,4.11,0,0,1-1.39.21,4.06,4.06,0,0,1-1.74-.32,2.35,2.35,0,0,1-1-.89,3.47,3.47,0,0,1-.45-1.36,13.38,13.38,0,0,1-.1-1.74,13,13,0,0,1,.09-1.57,3.38,3.38,0,0,1,.44-1.31,2.33,2.33,0,0,1,1-.89,4,4,0,0,1,1.77-.32,3.86,3.86,0,0,1,1.81.35,2.35,2.35,0,0,1,1,1,3.81,3.81,0,0,1,.42,1.44,13.07,13.07,0,0,1,.06,1.81Zm2.08-1.27v-.62a2.13,2.13,0,0,0-.11-.63,1,1,0,0,0-.31-.47,1,1,0,0,0-.62-.18.81.81,0,0,0-.6.2,1.25,1.25,0,0,0-.31.49,2.6,2.6,0,0,0-.11.63c0,.22,0,.41,0,.58Z"/>
    <path class="b39fd623-fc62-4d4b-b863-d4614c504bd7" d="M300.79,509.69v1h0a1.83,1.83,0,0,1,.86-1,3,3,0,0,1,1.23-.24v2a2.76,2.76,0,0,0-1.16.12,1.29,1.29,0,0,0-.6.45,1.25,1.25,0,0,0-.22.62c0,.22,0,.43,0,.64v4.4h-2.26v-8.08Z"/>
    <path class="b39fd623-fc62-4d4b-b863-d4614c504bd7" d="M310.11,516.26a6.28,6.28,0,0,0,0,.75c0,.26.05.51.07.76h-2.1l-.09-1.08h0a2.46,2.46,0,0,1-.87.93,2.37,2.37,0,0,1-1.24.31,2.17,2.17,0,0,1-1-.21,2,2,0,0,1-.66-.55,2.2,2.2,0,0,1-.37-.82,4,4,0,0,1-.11-1,2.92,2.92,0,0,1,.35-1.57A2.07,2.07,0,0,1,305,513a3.61,3.61,0,0,1,1.33-.32c.5,0,1,0,1.54,0V512a3.48,3.48,0,0,0,0-.47.74.74,0,0,0-.12-.37.57.57,0,0,0-.28-.25,1.08,1.08,0,0,0-.48-.09.91.91,0,0,0-.47.1.64.64,0,0,0-.26.28,1.39,1.39,0,0,0-.1.39c0,.15,0,.3,0,.46h-2.21a2.85,2.85,0,0,1,.22-1.21,1.77,1.77,0,0,1,.61-.76,2.41,2.41,0,0,1,.92-.4,5.51,5.51,0,0,1,1.19-.12,5.59,5.59,0,0,1,1.71.21,2.27,2.27,0,0,1,1,.59,1.73,1.73,0,0,1,.44.86,5,5,0,0,1,.11,1Zm-2.21-2.4-.78,0a1.62,1.62,0,0,0-.62.14.8.8,0,0,0-.41.4,1.8,1.8,0,0,0-.14.82,3.39,3.39,0,0,0,0,.45,1.3,1.3,0,0,0,.11.41.75.75,0,0,0,.26.3.74.74,0,0,0,.44.12.9.9,0,0,0,.73-.29,1.59,1.59,0,0,0,.32-.71,4.18,4.18,0,0,0,.08-.88C307.9,514.35,307.9,514.09,307.9,513.86Z"/>
    <path class="b39fd623-fc62-4d4b-b863-d4614c504bd7" d="M311.07,509.69H312v-1.28l2.25-1v2.29h1.17v1.39h-1.17v4.32c0,.15,0,.29,0,.41a.89.89,0,0,0,.07.32.43.43,0,0,0,.22.2,1,1,0,0,0,.42.08h.22a.48.48,0,0,0,.18,0v1.4l-.48.05a6.47,6.47,0,0,1-.69,0,2.64,2.64,0,0,1-1.16-.21,2,2,0,0,1-.67-.5,1.57,1.57,0,0,1-.3-.59,2.11,2.11,0,0,1-.07-.5v-5h-.91Z"/>
    <path class="b39fd623-fc62-4d4b-b863-d4614c504bd7" d="M318.89,506.21V508h-2.26v-1.78Zm0,11.56h-2.26v-8.08h2.26Z"/>
    <path class="b39fd623-fc62-4d4b-b863-d4614c504bd7" d="M324,517.93a4.06,4.06,0,0,1-1.74-.32,2.35,2.35,0,0,1-1-.89,3.47,3.47,0,0,1-.45-1.36,13.38,13.38,0,0,1-.1-1.74,13,13,0,0,1,.09-1.57,3.38,3.38,0,0,1,.44-1.31,2.33,2.33,0,0,1,1-.89,4,4,0,0,1,1.77-.32,4,4,0,0,1,1.78.32,2.33,2.33,0,0,1,1,.89,3.22,3.22,0,0,1,.43,1.31,11.2,11.2,0,0,1,.1,1.57,15.41,15.41,0,0,1-.1,1.74,3.47,3.47,0,0,1-.45,1.36,2.41,2.41,0,0,1-1,.89A4.08,4.08,0,0,1,324,517.93Zm0-1.44a1,1,0,0,0,.51-.12.81.81,0,0,0,.33-.45A4.91,4.91,0,0,0,325,515c0-.39,0-.9,0-1.52,0-.41,0-.78,0-1.1a2.73,2.73,0,0,0-.14-.79.92.92,0,0,0-.32-.47A.87.87,0,0,0,324,511a.9.9,0,0,0-.57.16,1,1,0,0,0-.31.47,2.76,2.76,0,0,0-.13.79c0,.32,0,.69,0,1.1,0,.62,0,1.13.05,1.52a4.19,4.19,0,0,0,.16.91.84.84,0,0,0,.31.45A1,1,0,0,0,324,516.49Z"/>
    <path class="b39fd623-fc62-4d4b-b863-d4614c504bd7" d="M331.15,510.5h0a1.85,1.85,0,0,1,.8-.75,2.42,2.42,0,0,1,1.1-.22,2.48,2.48,0,0,1,.77.12,2,2,0,0,1,.64.34,1.7,1.7,0,0,1,.44.55,1.66,1.66,0,0,1,.17.75v6.48h-2.26V512.2a2.4,2.4,0,0,0-.15-.91c-.1-.25-.33-.37-.7-.37a.65.65,0,0,0-.69.37,2.4,2.4,0,0,0-.15.91v5.57h-2.26v-8.08h2.26Z"/>
    <path class="b39fd623-fc62-4d4b-b863-d4614c504bd7" d="M337.05,515.65h2.1l-1.22,3.67h-1.54Z"/>
    <path class="b39fd623-fc62-4d4b-b863-d4614c504bd7" d="M351.27,514.61a3.64,3.64,0,0,1-.37,1.79,2.58,2.58,0,0,1-.95,1,3.7,3.7,0,0,1-1.3.44,9.78,9.78,0,0,1-1.41.11,4.48,4.48,0,0,1-1.82-.31,2.46,2.46,0,0,1-1.06-.82,3,3,0,0,1-.48-1.2,6.71,6.71,0,0,1-.06-1.43h2.41c0,.27,0,.54,0,.78a2.38,2.38,0,0,0,.16.65,1,1,0,0,0,.41.44,1.56,1.56,0,0,0,.78.16,1.13,1.13,0,0,0,.91-.36,1.44,1.44,0,0,0,.3-1,1.25,1.25,0,0,0-.36-.9,4.92,4.92,0,0,0-.9-.73c-.36-.23-.75-.45-1.17-.68a8.35,8.35,0,0,1-1.17-.8,4.2,4.2,0,0,1-.9-1.07,2.81,2.81,0,0,1-.36-1.47,4.26,4.26,0,0,1,.18-1.26,2.63,2.63,0,0,1,.62-1,3,3,0,0,1,1.17-.69,5.65,5.65,0,0,1,1.84-.26,3.63,3.63,0,0,1,2.61.83,3.25,3.25,0,0,1,.75,2.64h-2.35c0-.21,0-.42,0-.63a1.92,1.92,0,0,0-.16-.56,1.1,1.1,0,0,0-.34-.4,1,1,0,0,0-.58-.15,1.27,1.27,0,0,0-.92.31,1.22,1.22,0,0,0-.33.92,1.32,1.32,0,0,0,.36.93,3.84,3.84,0,0,0,.9.7c.37.22.75.43,1.17.65A7.17,7.17,0,0,1,350,512a3.7,3.7,0,0,1,.9,1.06A3,3,0,0,1,351.27,514.61Z"/>
    <path class="b39fd623-fc62-4d4b-b863-d4614c504bd7" d="M356.84,517h0a1.92,1.92,0,0,1-.8.76,2.66,2.66,0,0,1-1.1.22,2.43,2.43,0,0,1-.77-.12,1.88,1.88,0,0,1-.64-.35,1.7,1.7,0,0,1-.44-.55,1.64,1.64,0,0,1-.17-.74v-6.48h2.26v5.6a2.26,2.26,0,0,0,.15.89c.1.24.33.35.69.35s.6-.11.7-.35a2.26,2.26,0,0,0,.15-.89v-5.6h2.26v6.48c0,.26,0,.53,0,.8l.06.8h-2.34Z"/>
    <path class="b39fd623-fc62-4d4b-b863-d4614c504bd7" d="M363,509.69v1h0a1.83,1.83,0,0,1,.86-1,3,3,0,0,1,1.23-.24v2a2.76,2.76,0,0,0-1.16.12,1.29,1.29,0,0,0-.6.45,1.25,1.25,0,0,0-.22.62c0,.22,0,.43,0,.64v4.4h-2.26v-8.08Z"/>
    <path class="b39fd623-fc62-4d4b-b863-d4614c504bd7" d="M365.45,509.69h2.29l1.13,6.06h0l1.19-6.06h2.21l-2.23,8.08h-2.48Z"/>
    <path class="b39fd623-fc62-4d4b-b863-d4614c504bd7" d="M375.77,506.21V508h-2.26v-1.78Zm0,11.56h-2.26v-8.08h2.26Z"/>
    <path class="b39fd623-fc62-4d4b-b863-d4614c504bd7" d="M377,509.69h2.29l1.13,6.06h0l1.18-6.06h2.21l-2.23,8.08h-2.48Z"/>
    <path class="b39fd623-fc62-4d4b-b863-d4614c504bd7" d="M391,516.26a6.28,6.28,0,0,0,0,.75c0,.26,0,.51.07.76H389l-.1-1.08h0a2.62,2.62,0,0,1-.87.93,2.4,2.4,0,0,1-1.24.31,2.15,2.15,0,0,1-1-.21,1.93,1.93,0,0,1-.67-.55,2.37,2.37,0,0,1-.37-.82,4.57,4.57,0,0,1-.11-1,3,3,0,0,1,.35-1.57,2.13,2.13,0,0,1,.94-.82,3.67,3.67,0,0,1,1.34-.32c.5,0,1,0,1.53,0V512c0-.17,0-.32,0-.47a1,1,0,0,0-.12-.37.68.68,0,0,0-.28-.25,1.13,1.13,0,0,0-.49-.09.87.87,0,0,0-.46.1.59.59,0,0,0-.26.28,1.12,1.12,0,0,0-.1.39,3.44,3.44,0,0,0,0,.46h-2.21a3,3,0,0,1,.22-1.21,1.79,1.79,0,0,1,.62-.76,2.34,2.34,0,0,1,.92-.4,5.38,5.38,0,0,1,1.19-.12,5.68,5.68,0,0,1,1.71.21,2.33,2.33,0,0,1,1,.59,1.81,1.81,0,0,1,.44.86,5.82,5.82,0,0,1,.1,1Zm-2.21-2.4-.77,0a1.72,1.72,0,0,0-.63.14.88.88,0,0,0-.41.4,2,2,0,0,0-.14.82c0,.15,0,.3,0,.45a1.31,1.31,0,0,0,.12.41.72.72,0,0,0,.25.3.74.74,0,0,0,.44.12.92.92,0,0,0,.74-.29,1.71,1.71,0,0,0,.32-.71,5,5,0,0,0,.07-.88C388.79,514.35,388.79,514.09,388.79,513.86Z"/>
    <path class="b39fd623-fc62-4d4b-b863-d4614c504bd7" d="M395.32,506.21v11.56h-2.26V506.21Z"/>
  </g>
  <polygon class="a4012b65-4b82-4b70-ab83-b8c872637f53" points="163.21 355.18 163.25 352.8 165.08 248.85 160.83 248.78 159 352.72 158.96 355.1 158.95 355.06 155.74 353.55 160.88 366.86 166.48 353.74 163.22 355.13 163.21 355.18"/>
  <polygon class="fdf5e2ca-49aa-49e0-a1d6-952a198b4449" points="280.23 270.79 280.23 268.41 280.23 244.63 275.98 244.63 275.98 268.41 275.98 270.79 275.97 270.75 272.73 269.29 278.1 282.51 283.47 269.29 280.24 270.75 280.23 270.79"/>
  <polygon class="fdf5e2ca-49aa-49e0-a1d6-952a198b4449" points="280.23 174.12 280.23 171.73 280.23 154.95 275.98 154.95 275.98 171.73 275.98 174.12 275.97 174.07 272.73 172.62 278.1 185.83 283.47 172.62 280.24 174.07 280.23 174.12"/>
  <polygon class="a4012b65-4b82-4b70-ab83-b8c872637f53" points="203.98 181.71 206 180.44 248.41 153.88 246.16 150.28 203.74 176.84 201.72 178.1 201.76 178.07 201.27 174.56 192.92 186.12 206.97 183.66 204.02 181.69 203.98 181.71"/>
  <polygon class="a2e03e02-27ef-43db-9d40-226335174a44" points="362.02 176.58 359.94 175.41 303.96 144.03 301.88 147.74 357.87 179.12 359.94 180.29 359.9 180.27 357.05 182.38 371.2 184.16 362.3 173.02 361.99 176.55 362.02 176.58"/>
  <polygon class="fdf5e2ca-49aa-49e0-a1d6-952a198b4449" points="280.23 373.75 280.23 371.37 280.23 351.59 275.98 351.59 275.98 371.37 275.98 373.75 275.97 373.71 272.73 372.25 278.1 385.47 283.47 372.25 280.24 373.71 280.23 373.75"/>
  <polygon class="a4012b65-4b82-4b70-ab83-b8c872637f53" points="165.5 470.22 165.5 467.84 165.5 444.06 161.25 444.06 161.25 467.84 161.25 470.22 161.24 470.18 158 468.72 163.37 481.94 168.74 468.72 165.51 470.18 165.5 470.22"/>
  <polygon class="fdf5e2ca-49aa-49e0-a1d6-952a198b4449" points="280.43 470.22 280.43 467.84 280.43 444.06 276.18 444.06 276.18 467.84 276.18 470.22 276.17 470.18 272.93 468.72 278.3 481.94 283.67 468.72 280.44 470.18 280.43 470.22"/>
  <polygon class="a2e03e02-27ef-43db-9d40-226335174a44" points="398.9 470.22 398.9 467.84 398.9 444.06 394.64 444.06 394.64 467.84 394.64 470.22 394.64 470.18 391.4 468.72 396.77 481.94 402.14 468.72 398.9 470.18 398.9 470.22"/>
  <polygon class="a2e03e02-27ef-43db-9d40-226335174a44" points="398.9 373.75 398.9 371.37 398.9 351.59 394.64 351.59 394.64 371.37 394.64 373.75 394.64 373.71 391.4 372.25 396.77 385.47 402.14 372.25 398.9 373.71 398.9 373.75"/>
  <polygon class="a2e03e02-27ef-43db-9d40-226335174a44" points="422.94 296.71 424.62 295.03 429.59 290.06 426.58 287.06 421.61 292.03 419.93 293.71 419.96 293.67 418.7 290.35 413.15 303.5 426.29 297.95 422.98 296.69 422.94 296.71"/>
  <polygon class="a2e03e02-27ef-43db-9d40-226335174a44" points="398.62 251.71 398.62 249.33 398.62 242.3 394.37 242.3 394.37 249.33 394.37 251.71 394.36 251.66 391.12 250.21 396.49 263.43 401.86 250.21 398.63 251.66 398.62 251.71"/>
  <path class="a4012b65-4b82-4b70-ab83-b8c872637f53" d="M293.92,22.63a16.46,16.46,0,1,1-4.39-11.2A16.46,16.46,0,0,1,293.92,22.63Z"/>
  <path class="bfeceb56-29b3-4b41-bd7e-2b6023541818" d="M297.58,45.68a4,4,0,0,0-5.63.56L277.22,64.29,263.07,45.78a4,4,0,0,0-6.36,4.85l12.9,16.88L269,102.75a4,4,0,0,0,3.93,4.07H273a4,4,0,0,0,3.52-2.15,4,4,0,0,0,3.52,2.26h.07a4,4,0,0,0,4-3.93l.56-35.25L298.15,51.3A4,4,0,0,0,297.58,45.68Z"/>
  <g>
    <path class="b39fd623-fc62-4d4b-b863-d4614c504bd7" d="M267.12,28.1V16.54h5.95v1.28h-4.48v3.72h4.16v1.28h-4.16v4h4.58V28.1Z"/>
    <path class="b39fd623-fc62-4d4b-b863-d4614c504bd7" d="M279.85,19.63a2.32,2.32,0,0,0-.46-1.56,2,2,0,0,0-1.58-.53,4.25,4.25,0,0,0-.53,0,1.65,1.65,0,0,0-.71.29,2,2,0,0,0-.63.74,3.21,3.21,0,0,0-.26,1.42v3.91a7.57,7.57,0,0,0,.13,1.56,2.49,2.49,0,0,0,.41,1,1.37,1.37,0,0,0,.67.5,2.8,2.8,0,0,0,.92.13,4.49,4.49,0,0,0,1.32-.16,2.7,2.7,0,0,0,.74-.35V23.14h-2.13V21.86h3.6v5.61a7.57,7.57,0,0,1-1.57.63,7.2,7.2,0,0,1-2,.24,3.44,3.44,0,0,1-2.74-1,5.2,5.2,0,0,1-.9-3.43V20.08a4,4,0,0,1,.9-2.75,3.46,3.46,0,0,1,2.74-1,4.25,4.25,0,0,1,2.76.76,3.1,3.1,0,0,1,.82,2.57Z"/>
    <path class="b39fd623-fc62-4d4b-b863-d4614c504bd7" d="M283.18,28.1V16.54h5.73v1.28h-4.26v3.72h4v1.28h-4V28.1Z"/>
  </g>
  <g>
    <path class="a778d141-2057-456a-9e90-8a32e09cbab9" d="M306.17,54.54V43h5.95v1.28h-4.48V48h4.16v1.28h-4.16v4h4.58v1.28Z"/>
    <path class="a778d141-2057-456a-9e90-8a32e09cbab9" d="M318.91,46.08a2.33,2.33,0,0,0-.47-1.56,2,2,0,0,0-1.58-.54,4.93,4.93,0,0,0-.53.05,1.7,1.7,0,0,0-.71.29,1.93,1.93,0,0,0-.62.74,3.06,3.06,0,0,0-.27,1.42v3.9a7.43,7.43,0,0,0,.14,1.56,2.4,2.4,0,0,0,.41,1,1.39,1.39,0,0,0,.66.5,2.84,2.84,0,0,0,.92.13,4.15,4.15,0,0,0,1.32-.17,2.34,2.34,0,0,0,.74-.34V49.58H316.8V48.3h3.6v5.62a7.78,7.78,0,0,1-1.57.62,7.28,7.28,0,0,1-2,.24,3.43,3.43,0,0,1-2.74-1,5.27,5.27,0,0,1-.89-3.43V46.53a4.06,4.06,0,0,1,.89-2.75,3.43,3.43,0,0,1,2.74-1,4.21,4.21,0,0,1,2.76.76,3.07,3.07,0,0,1,.82,2.57Z"/>
    <path class="a778d141-2057-456a-9e90-8a32e09cbab9" d="M322.24,54.54V43H328v1.28h-4.25V48h4v1.28h-4v5.28Z"/>
    <path class="a778d141-2057-456a-9e90-8a32e09cbab9" d="M330.09,49.23v5.31h-1.47V43h4a3,3,0,0,1,1.3.25,2.38,2.38,0,0,1,.86.66,2.67,2.67,0,0,1,.47.92,4.09,4.09,0,0,1,.14,1,2.85,2.85,0,0,1-.54,1.75,2.41,2.41,0,0,1-1.57.89v0a3.88,3.88,0,0,1,.84.23,1.23,1.23,0,0,1,.57.47,2.33,2.33,0,0,1,.33.87,8,8,0,0,1,.15,1.41c0,.13,0,.32,0,.58s.05.55.09.85.08.6.13.89a4,4,0,0,0,.15.7H334a2.34,2.34,0,0,1-.23-.72,7.62,7.62,0,0,1-.1-.92c0-.33,0-.69-.05-1.06s0-.75-.07-1.14a1.66,1.66,0,0,0-.25-.82,1.49,1.49,0,0,0-.47-.44,1.62,1.62,0,0,0-.55-.18l-.47,0Zm0-1.28h2.21a1.42,1.42,0,0,0,.7-.16,1.39,1.39,0,0,0,.48-.42,1.81,1.81,0,0,0,.29-.61,2.48,2.48,0,0,0,.1-.73,2.7,2.7,0,0,0-.08-.62,1.58,1.58,0,0,0-.27-.57,1.38,1.38,0,0,0-.48-.41,1.56,1.56,0,0,0-.72-.16h-2.23Z"/>
  </g>
  <use width="34.33" height="48.46" transform="translate(84.4 167.09) rotate(90) scale(0.77)" xlink:href="#b6922ca8-aab5-4964-bed6-fb708acefaf3"/>
  <g>
    <path class="b39fd623-fc62-4d4b-b863-d4614c504bd7" d="M59.55,177.79a2.32,2.32,0,0,0-.46-1.56,2,2,0,0,0-1.59-.53,3.21,3.21,0,0,0-.53.05,1.67,1.67,0,0,0-.71.28,1.89,1.89,0,0,0-.62.75,3,3,0,0,0-.27,1.41v3.91a7.43,7.43,0,0,0,.14,1.56,2.49,2.49,0,0,0,.41,1,1.39,1.39,0,0,0,.66.5,2.82,2.82,0,0,0,.92.14,4.41,4.41,0,0,0,1.32-.17,2.39,2.39,0,0,0,.75-.35V181.3H57.44V180H61v5.61a7.57,7.57,0,0,1-1.57.63,7.28,7.28,0,0,1-2,.24,3.44,3.44,0,0,1-2.73-1,5.23,5.23,0,0,1-.9-3.44v-3.79a4,4,0,0,1,.9-2.75,3.44,3.44,0,0,1,2.73-1,4.15,4.15,0,0,1,2.76.76,3.07,3.07,0,0,1,.83,2.56Z"/>
    <path class="b39fd623-fc62-4d4b-b863-d4614c504bd7" d="M63,174.71h3.55a3.94,3.94,0,0,1,1.89.41,2.84,2.84,0,0,1,1.22,1.35,4,4,0,0,1,.28.92,11.11,11.11,0,0,1,.15,1.12c0,.38,0,.71.06,1s0,.5,0,.59a21,21,0,0,1-.17,3,4.48,4.48,0,0,1-.53,1.69,2.82,2.82,0,0,1-1.38,1.12,6.53,6.53,0,0,1-2.43.37H63ZM64.49,185h1.4a4.86,4.86,0,0,0,1.3-.16,1.77,1.77,0,0,0,.86-.56,2.52,2.52,0,0,0,.48-1.07,7.67,7.67,0,0,0,.16-1.67v-2.33a4.2,4.2,0,0,0-.56-2.48,2,2,0,0,0-1.7-.72H64.49Z"/>
    <path class="b39fd623-fc62-4d4b-b863-d4614c504bd7" d="M72.16,186.26V174.71h3.42a5,5,0,0,1,1.15.13,2.65,2.65,0,0,1,1,.5,2.59,2.59,0,0,1,.74,1A4.09,4.09,0,0,1,78.8,178a3.29,3.29,0,0,1-.34,1.61,2.71,2.71,0,0,1-.83,1,2.88,2.88,0,0,1-1.06.47,4.29,4.29,0,0,1-1,.13H73.63v5.09Zm1.47-6.37h1.62a3.45,3.45,0,0,0,.57-.06,1.75,1.75,0,0,0,.68-.25,1.68,1.68,0,0,0,.56-.59,2.07,2.07,0,0,0,.23-1.07,2.32,2.32,0,0,0-.2-1,1.79,1.79,0,0,0-.49-.58,1.61,1.61,0,0,0-.55-.26,1.92,1.92,0,0,0-.39,0h-2Z"/>
  </g>
  <g>
    <path class="b39fd623-fc62-4d4b-b863-d4614c504bd7" d="M83.19,159.89V148.34h1.48v5.07h0l4-5.07h1.66l-4.19,5.21,4.43,6.34H88.76l-4.05-6h0v6Z"/>
    <path class="b39fd623-fc62-4d4b-b863-d4614c504bd7" d="M92.73,154.58v5.31H91.26V148.34h4a3.14,3.14,0,0,1,1.3.24,2.37,2.37,0,0,1,.85.66,2.61,2.61,0,0,1,.48.92,4.11,4.11,0,0,1,.14,1.06,2.82,2.82,0,0,1-.54,1.74,2.42,2.42,0,0,1-1.57.9v0a3.92,3.92,0,0,1,.84.22,1.37,1.37,0,0,1,.57.47,2.31,2.31,0,0,1,.33.88,9.07,9.07,0,0,1,.15,1.4c0,.13,0,.33,0,.59s.05.54.09.85.08.6.12.88a5.15,5.15,0,0,0,.16.71H96.65a2.34,2.34,0,0,1-.23-.72,8,8,0,0,1-.11-.92c0-.34,0-.69,0-1.07s0-.75-.07-1.13a1.81,1.81,0,0,0-.25-.83,1.53,1.53,0,0,0-.48-.44,1.48,1.48,0,0,0-.54-.17l-.47,0Zm0-1.28h2.21a1.4,1.4,0,0,0,1.18-.59,1.72,1.72,0,0,0,.29-.61,2.84,2.84,0,0,0,.1-.72,2.79,2.79,0,0,0-.08-.63,1.87,1.87,0,0,0-.27-.57,1.35,1.35,0,0,0-.48-.4,1.49,1.49,0,0,0-.73-.16H92.73Z"/>
    <path class="b39fd623-fc62-4d4b-b863-d4614c504bd7" d="M102,148.34h1.87l3.76,11.55H106l-.83-2.75h-4.47l-.86,2.75H98.33Zm.89,1.36h0l-1.81,6.16h3.7Z"/>
    <path class="b39fd623-fc62-4d4b-b863-d4614c504bd7" d="M109.5,156.45v.33a2.38,2.38,0,0,0,.17,1,1.74,1.74,0,0,0,.44.63,1.76,1.76,0,0,0,.63.34,2.37,2.37,0,0,0,.69.11,3.12,3.12,0,0,0,.82-.1,1.63,1.63,0,0,0,.66-.32,1.6,1.6,0,0,0,.43-.58,2.08,2.08,0,0,0,.16-.87,1.56,1.56,0,0,0-.39-1.08,4,4,0,0,0-1-.78,12.06,12.06,0,0,0-1.24-.67,8.11,8.11,0,0,1-1.25-.75,3.87,3.87,0,0,1-1-1,2.55,2.55,0,0,1-.39-1.45,3.35,3.35,0,0,1,.26-1.35,2.72,2.72,0,0,1,.71-1,3,3,0,0,1,1.08-.6,4.24,4.24,0,0,1,1.35-.2,3.4,3.4,0,0,1,2.42.8,3.28,3.28,0,0,1,.78,2.57h-1.54A2.68,2.68,0,0,0,113,150a1.57,1.57,0,0,0-1.42-.57,2.67,2.67,0,0,0-.64.08,1.71,1.71,0,0,0-.57.29,1.45,1.45,0,0,0-.41.53,1.89,1.89,0,0,0-.15.79,1.57,1.57,0,0,0,.38,1.07,4.13,4.13,0,0,0,1,.76c.39.23.8.46,1.25.68a7.86,7.86,0,0,1,1.25.76,3.82,3.82,0,0,1,1,1,2.92,2.92,0,0,1,.38,1.53,3.63,3.63,0,0,1-.29,1.53,2.69,2.69,0,0,1-.79,1,3.16,3.16,0,0,1-1.14.54,6,6,0,0,1-1.37.16,4.12,4.12,0,0,1-1.44-.19,2.9,2.9,0,0,1-1-.51,2.33,2.33,0,0,1-.58-.72,3.33,3.33,0,0,1-.3-.81,4.6,4.6,0,0,1-.1-.8c0-.25,0-.47,0-.65Z"/>
    <path class="b39fd623-fc62-4d4b-b863-d4614c504bd7" d="M88.31,163.34h1.57l2.18,10h0l2.32-10h1.9l2.1,10h0l2.35-10h1.54l-3.06,11.55H97.48l-2.19-10h0l-2.34,10H91.13Z"/>
    <path class="b39fd623-fc62-4d4b-b863-d4614c504bd7" d="M109.42,163.34v1.28h-3v10.27h-1.47V164.62h-3v-1.28Z"/>
  </g>
  <use width="34.33" height="48.46" transform="translate(265.8 100.41) rotate(90) scale(1.22)" xlink:href="#beeccd13-4939-4bd7-832e-3e6cbbcc9e1a"/>
  <use width="34.33" height="48.46" transform="translate(292.67 120.67) rotate(90) scale(0.77)" xlink:href="#b6922ca8-aab5-4964-bed6-fb708acefaf3"/>
  <g>
    <path class="b39fd623-fc62-4d4b-b863-d4614c504bd7" d="M268.7,131.37a2.32,2.32,0,0,0-.46-1.56,2,2,0,0,0-1.58-.53,4.25,4.25,0,0,0-.53,0,1.78,1.78,0,0,0-.71.29,1.91,1.91,0,0,0-.63.75,3.13,3.13,0,0,0-.26,1.41v3.91a7.57,7.57,0,0,0,.13,1.56,2.49,2.49,0,0,0,.41,1,1.37,1.37,0,0,0,.67.5,2.8,2.8,0,0,0,.92.13,4.37,4.37,0,0,0,1.31-.16,2.64,2.64,0,0,0,.75-.35v-3.45h-2.13V133.6h3.6v5.61a7.57,7.57,0,0,1-1.57.63,7.2,7.2,0,0,1-2,.24,3.44,3.44,0,0,1-2.74-1,5.19,5.19,0,0,1-.9-3.43v-3.79a4,4,0,0,1,.9-2.75,3.46,3.46,0,0,1,2.74-1,4.25,4.25,0,0,1,2.76.76,3.1,3.1,0,0,1,.82,2.57Z"/>
    <path class="b39fd623-fc62-4d4b-b863-d4614c504bd7" d="M278.62,128.28v1.28h-3v10.28h-1.47V129.56h-3v-1.28Z"/>
    <path class="b39fd623-fc62-4d4b-b863-d4614c504bd7" d="M279.54,139.84V128.28H283a5,5,0,0,1,1.15.14,2.54,2.54,0,0,1,1,.5,2.51,2.51,0,0,1,.75,1,4.1,4.1,0,0,1,.28,1.66,3.41,3.41,0,0,1-.33,1.61,2.71,2.71,0,0,1-.83,1,3.13,3.13,0,0,1-1.06.47,4.91,4.91,0,0,1-1,.13H281v5.09Zm1.47-6.37h1.61a3.66,3.66,0,0,0,.58-.06,2,2,0,0,0,.68-.25,1.81,1.81,0,0,0,.56-.6,2.11,2.11,0,0,0,.23-1.06,2.18,2.18,0,0,0-.21-1,1.59,1.59,0,0,0-.49-.58,1.38,1.38,0,0,0-.55-.26,2.1,2.1,0,0,0-.38-.06h-2Z"/>
  </g>
  <g>
    <path class="b39fd623-fc62-4d4b-b863-d4614c504bd7" d="M153.61,213.49v5.31h-1.48V207.25h4a2.94,2.94,0,0,1,1.29.25,2.28,2.28,0,0,1,.86.65,2.44,2.44,0,0,1,.47.92,3.77,3.77,0,0,1,.15,1.06,2.76,2.76,0,0,1-.55,1.74,2.38,2.38,0,0,1-1.57.9v0a3.92,3.92,0,0,1,.84.22,1.32,1.32,0,0,1,.57.48,2.51,2.51,0,0,1,.34.87,9.25,9.25,0,0,1,.14,1.41c0,.12,0,.32,0,.58s.05.54.09.85.08.6.13.89.1.52.15.7h-1.53a2.34,2.34,0,0,1-.24-.72c0-.28-.08-.58-.1-.92s0-.69-.05-1.06,0-.76-.06-1.14a1.62,1.62,0,0,0-.26-.82,1.3,1.3,0,0,0-.47-.44,1.44,1.44,0,0,0-.54-.18l-.48,0Zm0-1.28h2.2a1.42,1.42,0,0,0,.7-.16,1.54,1.54,0,0,0,.49-.42,2,2,0,0,0,.29-.61,2.86,2.86,0,0,0,.09-.73,2.25,2.25,0,0,0-.08-.62,1.49,1.49,0,0,0-.26-.57,1.42,1.42,0,0,0-1.21-.57h-2.22Z"/>
    <path class="b39fd623-fc62-4d4b-b863-d4614c504bd7" d="M162.87,207.25h1.87l3.76,11.55h-1.65l-.83-2.75h-4.46l-.87,2.75h-1.48Zm.9,1.36h0l-1.8,6.16h3.69Z"/>
    <path class="b39fd623-fc62-4d4b-b863-d4614c504bd7" d="M169.24,218.8V207.25h1.47v10.27H175v1.28Z"/>
  </g>
  <g>
    <path class="b39fd623-fc62-4d4b-b863-d4614c504bd7" d="M220.56,120.67V109.11H222v5.08h.05l4-5.08h1.67l-4.19,5.22,4.43,6.34h-1.89l-4-6H222v6Z"/>
    <path class="b39fd623-fc62-4d4b-b863-d4614c504bd7" d="M230.1,115.35v5.32h-1.47V109.11h4a3.17,3.17,0,0,1,1.3.25,2.43,2.43,0,0,1,1.32,1.58,3.7,3.7,0,0,1,.15,1,2.77,2.77,0,0,1-.55,1.75,2.33,2.33,0,0,1-1.56.89v0a3.41,3.41,0,0,1,.84.22,1.33,1.33,0,0,1,.56.47,2.51,2.51,0,0,1,.34.87,9.54,9.54,0,0,1,.14,1.41,5.52,5.52,0,0,0,0,.59c0,.26.05.54.08.84s.08.6.13.89.1.52.15.71H234a2.26,2.26,0,0,1-.23-.72,8,8,0,0,1-.11-.92c0-.34,0-.69-.05-1.07s0-.75-.06-1.13a1.66,1.66,0,0,0-.26-.83,1.39,1.39,0,0,0-.47-.44,1.54,1.54,0,0,0-.54-.17,3.06,3.06,0,0,0-.47,0Zm0-1.28h2.21a1.41,1.41,0,0,0,.69-.16,1.33,1.33,0,0,0,.49-.42,2,2,0,0,0,.29-.61,2.86,2.86,0,0,0,.09-.73,2.25,2.25,0,0,0-.08-.62,1.64,1.64,0,0,0-.26-.57,1.49,1.49,0,0,0-.48-.41,1.61,1.61,0,0,0-.73-.16H230.1Z"/>
    <path class="b39fd623-fc62-4d4b-b863-d4614c504bd7" d="M239.36,109.11h1.87L245,120.67h-1.64l-.84-2.76h-4.46l-.86,2.76H235.7Zm.9,1.36h0l-1.81,6.16h3.69Z"/>
    <path class="b39fd623-fc62-4d4b-b863-d4614c504bd7" d="M246.87,117.23v.33a2.6,2.6,0,0,0,.16,1,1.65,1.65,0,0,0,1.08,1,2.31,2.31,0,0,0,.69.11,3.61,3.61,0,0,0,.82-.1,1.59,1.59,0,0,0,.65-.32,1.52,1.52,0,0,0,.44-.58,2.27,2.27,0,0,0,.16-.88,1.55,1.55,0,0,0-.39-1.07,3.8,3.8,0,0,0-1-.78,11.27,11.27,0,0,0-1.25-.67,7.76,7.76,0,0,1-1.24-.76,3.68,3.68,0,0,1-1-1,2.55,2.55,0,0,1-.39-1.45,3.35,3.35,0,0,1,.26-1.35,2.85,2.85,0,0,1,.71-1,3.15,3.15,0,0,1,1.08-.6,4.48,4.48,0,0,1,1.34-.2,3.36,3.36,0,0,1,2.43.81,3.24,3.24,0,0,1,.77,2.57h-1.53a2.66,2.66,0,0,0-.36-1.52,1.58,1.58,0,0,0-1.42-.58,2.37,2.37,0,0,0-.65.09,1.76,1.76,0,0,0-.56.29,1.37,1.37,0,0,0-.41.53,1.89,1.89,0,0,0-.15.79,1.48,1.48,0,0,0,.38,1.06,4.16,4.16,0,0,0,1,.77,13.22,13.22,0,0,0,1.25.67,8.67,8.67,0,0,1,1.25.76,4,4,0,0,1,1,1,2.89,2.89,0,0,1,.38,1.53,3.48,3.48,0,0,1-.3,1.53,2.67,2.67,0,0,1-.78,1,3.16,3.16,0,0,1-1.14.54,6,6,0,0,1-1.37.16,4.09,4.09,0,0,1-1.44-.19,2.9,2.9,0,0,1-1-.51,2.37,2.37,0,0,1-.59-.72,3.65,3.65,0,0,1-.29-.82,4.41,4.41,0,0,1-.11-.79c0-.25,0-.47,0-.65Z"/>
    <path class="b39fd623-fc62-4d4b-b863-d4614c504bd7" d="M225.68,124.11h1.57l2.18,10h0l2.32-10h1.9l2.1,10h0l2.35-10h1.54l-3.06,11.56h-1.79l-2.19-10h0l-2.34,10H228.5Z"/>
    <path class="b39fd623-fc62-4d4b-b863-d4614c504bd7" d="M246.79,124.11v1.28h-3v10.28h-1.48V125.39h-3v-1.28Z"/>
  </g>
  <path class="fdf5e2ca-49aa-49e0-a1d6-952a198b4449" d="M298.05,212.91a19.86,19.86,0,1,1-5.11-13.28A19.85,19.85,0,0,1,298.05,212.91Z"/>
  <path class="a2e03e02-27ef-43db-9d40-226335174a44" d="M416,212.91a19.84,19.84,0,1,1-4.53-12.62A19.85,19.85,0,0,1,416,212.91Z"/>
  <g>
    <path class="a778d141-2057-456a-9e90-8a32e09cbab9" d="M269,213.49v5.31h-1.47V207.25h4a3,3,0,0,1,1.3.25,2.36,2.36,0,0,1,.86.65,2.76,2.76,0,0,1,.47.92,4.17,4.17,0,0,1,.14,1.06,2.82,2.82,0,0,1-.54,1.74,2.42,2.42,0,0,1-1.57.9v0a3.92,3.92,0,0,1,.84.22,1.32,1.32,0,0,1,.57.48,2.33,2.33,0,0,1,.33.87,8,8,0,0,1,.15,1.41c0,.12,0,.32,0,.58s0,.54.09.85.08.6.12.89a5.32,5.32,0,0,0,.16.7h-1.54a2.34,2.34,0,0,1-.23-.72,7.85,7.85,0,0,1-.1-.92c0-.33,0-.69-.05-1.06s0-.76-.07-1.14a1.62,1.62,0,0,0-.25-.82,1.38,1.38,0,0,0-.47-.44,1.42,1.42,0,0,0-.55-.18l-.47,0Zm0-1.28h2.21a1.35,1.35,0,0,0,.69-.16,1.54,1.54,0,0,0,.49-.42,1.81,1.81,0,0,0,.29-.61,2.48,2.48,0,0,0,.1-.73,2.7,2.7,0,0,0-.08-.62,1.67,1.67,0,0,0-.27-.57,1.38,1.38,0,0,0-.48-.41,1.46,1.46,0,0,0-.73-.16H269Z"/>
    <path class="a778d141-2057-456a-9e90-8a32e09cbab9" d="M278.21,207.25h1.88l3.76,11.55H282.2l-.83-2.75H276.9L276,218.8h-1.49Zm.9,1.36h0l-1.81,6.16H281Z"/>
    <path class="a778d141-2057-456a-9e90-8a32e09cbab9" d="M284.47,218.8V207.25h5.73v1.28h-4.26v3.71h4v1.28h-4v5.28Z"/>
  </g>
  <g>
    <path class="a778d141-2057-456a-9e90-8a32e09cbab9" d="M149.88,119.14a2.34,2.34,0,0,0-.86-1.38,2,2,0,0,0-1.67-.09,4.52,4.52,0,0,0-.5.19,1.65,1.65,0,0,0-.61.47,1.94,1.94,0,0,0-.4.88,3,3,0,0,0,.13,1.44l1,3.76a7.38,7.38,0,0,0,.55,1.46,2.52,2.52,0,0,0,.66.83,1.36,1.36,0,0,0,.77.31,3.15,3.15,0,0,0,.92-.12,4.06,4.06,0,0,0,1.23-.52,2.34,2.34,0,0,0,.62-.53l-.92-3.33-2.05.57-.35-1.23,3.47-1,1.51,5.41a8.37,8.37,0,0,1-1.35,1,7.41,7.41,0,0,1-1.83.76,3.47,3.47,0,0,1-2.91-.26,5.27,5.27,0,0,1-1.78-3.07l-1-3.65a4,4,0,0,1,.13-2.89,3.45,3.45,0,0,1,2.36-1.73,4.19,4.19,0,0,1,2.86,0,3.05,3.05,0,0,1,1.48,2.25Z"/>
    <path class="a778d141-2057-456a-9e90-8a32e09cbab9" d="M155.46,126.37l-3.09-11.12,5.73-1.6.35,1.23-4.32,1.2,1,3.58,4-1.11.35,1.23-4,1.11,1.07,3.86,4.41-1.23.34,1.23Z"/>
    <path class="a778d141-2057-456a-9e90-8a32e09cbab9" d="M162.29,124.48l-3.09-11.13,5.52-1.54.34,1.23-4.1,1.14,1,3.58,3.89-1.08.34,1.23L162.3,119l1.41,5.09Z"/>
  </g>
  <g>
    <path class="a778d141-2057-456a-9e90-8a32e09cbab9" d="M161.39,153.84a2.27,2.27,0,0,0-.87-1.38,2,2,0,0,0-1.67-.09,4.79,4.79,0,0,0-.49.18,1.76,1.76,0,0,0-.61.47,2,2,0,0,0-.4.89,3.1,3.1,0,0,0,.12,1.43l1.05,3.76a7.26,7.26,0,0,0,.55,1.47,2.38,2.38,0,0,0,.65.83,1.45,1.45,0,0,0,.77.3,2.87,2.87,0,0,0,.93-.11,4.55,4.55,0,0,0,1.22-.52,2.44,2.44,0,0,0,.63-.53l-.93-3.33-2.05.57-.34-1.23,3.47-1,1.5,5.41a7.28,7.28,0,0,1-1.34,1,7,7,0,0,1-1.83.76,3.46,3.46,0,0,1-2.92-.26,5.25,5.25,0,0,1-1.78-3.06l-1-3.66a4,4,0,0,1,.12-2.89,3.44,3.44,0,0,1,2.36-1.72,4.23,4.23,0,0,1,2.87,0,3.08,3.08,0,0,1,1.48,2.26Z"/>
    <path class="a778d141-2057-456a-9e90-8a32e09cbab9" d="M166.39,149.24l1.8-.5,6.72,10.12-1.59.44-1.54-2.42-4.3,1.19-.09,2.88-1.44.4Zm1.23,1.07h0l-.09,6.42,3.56-1Z"/>
    <path class="a778d141-2057-456a-9e90-8a32e09cbab9" d="M175.8,158.61l-3.09-11.13,3.3-.91a4.38,4.38,0,0,1,1.14-.18,2.55,2.55,0,0,1,1.13.2,2.69,2.69,0,0,1,1,.76,4.2,4.2,0,0,1,.72,1.53,3.39,3.39,0,0,1,.11,1.64,2.74,2.74,0,0,1-.55,1.15,3.14,3.14,0,0,1-.89.74,4.71,4.71,0,0,1-.94.39l-1.86.52,1.36,4.9Zm-.28-6.53,1.55-.43a3.25,3.25,0,0,0,.54-.21,1.86,1.86,0,0,0,.59-.43,1.65,1.65,0,0,0,.38-.72,2,2,0,0,0-.06-1.08,2.28,2.28,0,0,0-.48-1,1.65,1.65,0,0,0-.63-.43,1.46,1.46,0,0,0-.6-.1,1.93,1.93,0,0,0-.38.05l-2,.54Z"/>
  </g>
  <g>
    <path class="a778d141-2057-456a-9e90-8a32e09cbab9" d="M343.63,280.51V269h3.42a5,5,0,0,1,1.15.14,2.5,2.5,0,0,1,1.78,1.49,4.15,4.15,0,0,1,.28,1.67,3.37,3.37,0,0,1-.33,1.6,2.54,2.54,0,0,1-.83,1,3.16,3.16,0,0,1-1.06.48,4.84,4.84,0,0,1-1,.12H345.1v5.09Zm1.47-6.37h1.61a3.47,3.47,0,0,0,.58-.05,1.84,1.84,0,0,0,.68-.26,1.68,1.68,0,0,0,.56-.59,2.11,2.11,0,0,0,.23-1.06,2.15,2.15,0,0,0-.21-1,1.72,1.72,0,0,0-.49-.59,1.35,1.35,0,0,0-.55-.25,2.1,2.1,0,0,0-.38-.06h-2Z"/>
    <path class="a778d141-2057-456a-9e90-8a32e09cbab9" d="M353.19,280.51h-1.47V269h1.47Z"/>
    <path class="a778d141-2057-456a-9e90-8a32e09cbab9" d="M355.37,280.51V269h3.42a5.11,5.11,0,0,1,1.16.14,2.46,2.46,0,0,1,1.77,1.49,4.14,4.14,0,0,1,.29,1.67,3.25,3.25,0,0,1-.34,1.6,2.54,2.54,0,0,1-.83,1,3.11,3.11,0,0,1-1,.48,4.92,4.92,0,0,1-1,.12h-1.94v5.09Zm1.47-6.37h1.62a3.29,3.29,0,0,0,.57-.05,1.78,1.78,0,0,0,.68-.26,1.6,1.6,0,0,0,.56-.59,2,2,0,0,0,.23-1.06,2.16,2.16,0,0,0-.2-1,1.72,1.72,0,0,0-.49-.59,1.41,1.41,0,0,0-.55-.25,2.05,2.05,0,0,0-.39-.06h-2Z"/>
    <path class="a778d141-2057-456a-9e90-8a32e09cbab9" d="M362.67,280.51v-1.28c.8-1.13,1.48-2.06,2-2.78s1-1.34,1.29-1.85a6.17,6.17,0,0,0,.69-1.35,3.91,3.91,0,0,0,.2-1.31,1.66,1.66,0,0,0-.33-1.08,1.51,1.51,0,0,0-1.72-.23,1.18,1.18,0,0,0-.4.4,1.72,1.72,0,0,0-.18.58,4.87,4.87,0,0,0,0,.66h-1.5a3,3,0,0,1,.58-2.21,2.57,2.57,0,0,1,2.1-.83,3.12,3.12,0,0,1,2.24.71,3,3,0,0,1,.72,2.2,5.52,5.52,0,0,1-.1,1.13,4.88,4.88,0,0,1-.32,1,6.26,6.26,0,0,1-.55.95c-.23.32-.49.68-.79,1.06s-.65.83-1,1.31-.83,1-1.31,1.66h4.4v1.28Z"/>
  </g>
  <g>
    <path class="a778d141-2057-456a-9e90-8a32e09cbab9" d="M431.78,280.51V269h3.43a5.09,5.09,0,0,1,1.15.14,2.59,2.59,0,0,1,1,.49,2.67,2.67,0,0,1,.74,1,4,4,0,0,1,.29,1.67,3.37,3.37,0,0,1-.33,1.6,2.65,2.65,0,0,1-.84,1,3.11,3.11,0,0,1-1.05.48,4.92,4.92,0,0,1-1,.12h-1.94v5.09Zm1.47-6.37h1.62a3.47,3.47,0,0,0,.58-.05,1.84,1.84,0,0,0,.68-.26,1.77,1.77,0,0,0,.56-.59,2.11,2.11,0,0,0,.23-1.06,2.15,2.15,0,0,0-.21-1,1.72,1.72,0,0,0-.49-.59,1.35,1.35,0,0,0-.55-.25,2.1,2.1,0,0,0-.38-.06h-2Z"/>
    <path class="a778d141-2057-456a-9e90-8a32e09cbab9" d="M441.35,280.51h-1.47V269h1.47Z"/>
    <path class="a778d141-2057-456a-9e90-8a32e09cbab9" d="M443.53,280.51V269H447a5,5,0,0,1,1.15.14,2.52,2.52,0,0,1,1,.49,2.59,2.59,0,0,1,.75,1,4.14,4.14,0,0,1,.29,1.67,3.36,3.36,0,0,1-.34,1.6,2.54,2.54,0,0,1-.83,1,3.07,3.07,0,0,1-1.06.48,4.84,4.84,0,0,1-1,.12H445v5.09Zm1.47-6.37h1.61a3.39,3.39,0,0,0,.58-.05,1.84,1.84,0,0,0,.68-.26,1.6,1.6,0,0,0,.56-.59,2.11,2.11,0,0,0,.23-1.06,2.15,2.15,0,0,0-.21-1,1.7,1.7,0,0,0-.48-.59,1.39,1.39,0,0,0-.56-.25,2.1,2.1,0,0,0-.38-.06h-2Z"/>
    <path class="a778d141-2057-456a-9e90-8a32e09cbab9" d="M452.84,274.06a2.72,2.72,0,0,0,.91,0,1.8,1.8,0,0,0,.72-.3,1.45,1.45,0,0,0,.47-.59,2.31,2.31,0,0,0,.17-.91,2,2,0,0,0-.36-1.26,1.36,1.36,0,0,0-1.18-.5,1.38,1.38,0,0,0-.73.17,1.19,1.19,0,0,0-.43.4,1.53,1.53,0,0,0-.19.58c0,.22,0,.44,0,.66h-1.47a3,3,0,0,1,.62-2.23,2.8,2.8,0,0,1,2.24-.81,3.19,3.19,0,0,1,2.22.72,2.75,2.75,0,0,1,.79,2.17,2.69,2.69,0,0,1-.25,1.26,2.47,2.47,0,0,1-.6.76,2.09,2.09,0,0,1-.72.38l-.62.18v0a2.52,2.52,0,0,1,1.81.88,3.35,3.35,0,0,1,.49,1.95,3.15,3.15,0,0,1-.84,2.41,4.25,4.25,0,0,1-3.74.58,2.3,2.3,0,0,1-.84-.51,2,2,0,0,1-.47-.7,3.51,3.51,0,0,1-.21-.75,4.16,4.16,0,0,1-.06-.67v-.46H452a5.08,5.08,0,0,0,.05.79,1.78,1.78,0,0,0,.22.65,1.15,1.15,0,0,0,.45.45,1.67,1.67,0,0,0,.8.17,2,2,0,0,0,.8-.14,1.37,1.37,0,0,0,.53-.41,1.51,1.51,0,0,0,.28-.63,3.51,3.51,0,0,0,.08-.82,3.76,3.76,0,0,0-.13-1.1,1.31,1.31,0,0,0-.41-.66,1.62,1.62,0,0,0-.75-.33,5.7,5.7,0,0,0-1.09-.09Z"/>
  </g>
  <g>
    <path class="b39fd623-fc62-4d4b-b863-d4614c504bd7" d="M382.9,218.8V207.25h3.43a5.07,5.07,0,0,1,1.15.13,2.75,2.75,0,0,1,1,.5,2.59,2.59,0,0,1,.74,1,4,4,0,0,1,.29,1.67,3.37,3.37,0,0,1-.33,1.6,2.83,2.83,0,0,1-.84,1,3.11,3.11,0,0,1-1.05.48,4.92,4.92,0,0,1-1,.12h-1.94v5.09Zm1.47-6.37H386a5,5,0,0,0,.58-.05,2,2,0,0,0,.68-.26,1.77,1.77,0,0,0,.56-.59,2.15,2.15,0,0,0,.23-1.07,2.21,2.21,0,0,0-.21-1,1.68,1.68,0,0,0-.49-.58,1.35,1.35,0,0,0-.55-.25,2.1,2.1,0,0,0-.38-.06h-2Z"/>
    <path class="b39fd623-fc62-4d4b-b863-d4614c504bd7" d="M394.13,218.8h-1.47v-9.49L391,210.43V209a2.46,2.46,0,0,0,.38-.22l.52-.36c.19-.13.37-.27.54-.4l.43-.34h1.26Z"/>
    <path class="b39fd623-fc62-4d4b-b863-d4614c504bd7" d="M398.52,212.35a3,3,0,0,0,.91,0,2,2,0,0,0,.72-.3,1.49,1.49,0,0,0,.47-.6,2.24,2.24,0,0,0,.17-.91,2.09,2.09,0,0,0-.36-1.26,1.38,1.38,0,0,0-1.18-.49,1.49,1.49,0,0,0-.73.16,1.3,1.3,0,0,0-.43.41,1.53,1.53,0,0,0-.19.58c0,.22,0,.44,0,.66h-1.47a3,3,0,0,1,.62-2.23,2.8,2.8,0,0,1,2.24-.81,3.23,3.23,0,0,1,2.22.71,2.78,2.78,0,0,1,.79,2.17,2.71,2.71,0,0,1-.25,1.27,2.6,2.6,0,0,1-.6.75,2.12,2.12,0,0,1-.72.39l-.62.17v0a2.48,2.48,0,0,1,1.81.88,3.29,3.29,0,0,1,.49,1.94,3.16,3.16,0,0,1-.84,2.42,3.52,3.52,0,0,1-2.45.78,3.72,3.72,0,0,1-1.29-.2,2.3,2.3,0,0,1-.84-.51,2,2,0,0,1-.47-.7,3.51,3.51,0,0,1-.21-.75,4.16,4.16,0,0,1-.06-.67v-.46h1.48a5.08,5.08,0,0,0,.05.79,1.78,1.78,0,0,0,.22.65,1.15,1.15,0,0,0,.45.45,1.67,1.67,0,0,0,.8.17,2.08,2.08,0,0,0,.8-.14,1.37,1.37,0,0,0,.53-.41,1.64,1.64,0,0,0,.28-.63,3.51,3.51,0,0,0,.08-.82,3.76,3.76,0,0,0-.13-1.1,1.31,1.31,0,0,0-.41-.66,1.62,1.62,0,0,0-.75-.33,5.7,5.7,0,0,0-1.09-.09Z"/>
    <path class="b39fd623-fc62-4d4b-b863-d4614c504bd7" d="M403.41,218.8V207.25h1.47v5.07h.05l4-5.07h1.67l-4.19,5.21,4.43,6.34H409l-4.05-6h-.05v6Z"/>
  </g>
  <path class="a4012b65-4b82-4b70-ab83-b8c872637f53" d="M183.22,408.87a19.84,19.84,0,1,1-3.15-10.73A19.85,19.85,0,0,1,183.22,408.87Z"/>
  <g>
    <path class="b39fd623-fc62-4d4b-b863-d4614c504bd7" d="M156.13,403.21v11.55h-2l-4.56-10h0v10h-1.31V403.21h2.08l4.49,9.89h0v-9.89Z"/>
    <path class="b39fd623-fc62-4d4b-b863-d4614c504bd7" d="M157.89,414.76V403.21h5.72v1.28h-4.25v3.71h4v1.28h-4v5.28Z"/>
    <path class="b39fd623-fc62-4d4b-b863-d4614c504bd7" d="M165.47,414.76h-1.31V403.21h1.31v7h0l2.47-3.49h1.6l-2.69,3.47,3.17,4.61h-1.67l-2.88-4.53h0Z"/>
    <path class="b39fd623-fc62-4d4b-b863-d4614c504bd7" d="M170.75,414.76V403.21h3.76a5.09,5.09,0,0,1,1,.09,2.78,2.78,0,0,1,.71.26,2.07,2.07,0,0,1,.49.38,3.94,3.94,0,0,1,.36.45c.09.16.17.32.24.47a3.64,3.64,0,0,1,.14.44,3.26,3.26,0,0,1,.06.38c0,.11,0,.2,0,.25a3.31,3.31,0,0,1-.43,1.78,2.32,2.32,0,0,1-1.55,1v.08a2.57,2.57,0,0,1,1.8.86,3,3,0,0,1,.56,1.91,3.59,3.59,0,0,1-.36,1.75,2.67,2.67,0,0,1-.88,1,3,3,0,0,1-1.13.42,7.5,7.5,0,0,1-1.1.09Zm1.47-6.69h2.15a1.66,1.66,0,0,0,1.28-.5,1.94,1.94,0,0,0,.43-1.34,1.83,1.83,0,0,0-.43-1.23,1.65,1.65,0,0,0-1.35-.51h-2.08Zm0,5.41h2.08a2.21,2.21,0,0,0,1-.19,2.08,2.08,0,0,0,.66-.48,1.84,1.84,0,0,0,.37-.63,2.29,2.29,0,0,0,.11-.67,2.66,2.66,0,0,0-.2-1.11,1.63,1.63,0,0,0-.55-.66,2.4,2.4,0,0,0-.84-.31,7,7,0,0,0-1.05-.08h-1.57Z"/>
  </g>
  <path class="fdf5e2ca-49aa-49e0-a1d6-952a198b4449" d="M298.05,413.87a19.86,19.86,0,1,1-5.11-13.28A19.84,19.84,0,0,1,298.05,413.87Z"/>
  <path class="a2e03e02-27ef-43db-9d40-226335174a44" d="M416,413.87a19.84,19.84,0,1,1-4.53-12.62A19.84,19.84,0,0,1,416,413.87Z"/>
  <g>
    <path class="a778d141-2057-456a-9e90-8a32e09cbab9" d="M267.48,419.76V408.21h5.95v1.28H269v3.71h4.16v1.28H269v4h4.58v1.28Z"/>
    <path class="a778d141-2057-456a-9e90-8a32e09cbab9" d="M276.12,414.45v5.31h-1.47V408.21h4a3,3,0,0,1,1.3.25,2.32,2.32,0,0,1,.85.65,2.44,2.44,0,0,1,.47.92,3.77,3.77,0,0,1,.15,1.06,2.76,2.76,0,0,1-.55,1.74,2.38,2.38,0,0,1-1.56.9v0a3.92,3.92,0,0,1,.84.22,1.29,1.29,0,0,1,.56.48,2.2,2.2,0,0,1,.34.87,8.13,8.13,0,0,1,.14,1.41c0,.12,0,.32,0,.58s.05.54.08.85.09.6.13.89a5.32,5.32,0,0,0,.16.7H280a2.1,2.1,0,0,1-.23-.72,7.74,7.74,0,0,1-.11-.92c0-.34,0-.69,0-1.06s0-.76-.07-1.14a1.62,1.62,0,0,0-.26-.82,1.23,1.23,0,0,0-.47-.44,1.38,1.38,0,0,0-.54-.18l-.47,0Zm0-1.28h2.21A1.49,1.49,0,0,0,279,413a1.45,1.45,0,0,0,.49-.43,1.86,1.86,0,0,0,.29-.6,2.92,2.92,0,0,0,.09-.73,2.37,2.37,0,0,0-.08-.63,1.52,1.52,0,0,0-.26-.56,1.28,1.28,0,0,0-.48-.41,1.49,1.49,0,0,0-.73-.16h-2.22Z"/>
    <path class="a778d141-2057-456a-9e90-8a32e09cbab9" d="M282.77,419.76V408.21h1.48v5.07h0l4-5.07H290l-4.19,5.21,4.43,6.34h-1.89l-4-6h0v6Z"/>
  </g>
  <g>
    <path class="b39fd623-fc62-4d4b-b863-d4614c504bd7" d="M383.7,419.76v-5.6a2.88,2.88,0,0,0-.05-.59,1.26,1.26,0,0,0-.19-.51,1,1,0,0,0-.39-.34,1.37,1.37,0,0,0-.65-.13,1.67,1.67,0,0,0-.65.16,1.08,1.08,0,0,0-.48.39,1.87,1.87,0,0,0-.24.63,2.5,2.5,0,0,0-.07.55v5.44h-1.31v-6.4c0-.28,0-.56,0-.84l-.06-.84H381v1h0a1.77,1.77,0,0,1,.8-.91,2.65,2.65,0,0,1,1.22-.26,2.74,2.74,0,0,1,.56.06,1.72,1.72,0,0,1,.54.18,1.9,1.9,0,0,1,.47.33,1.4,1.4,0,0,1,.32.47,1.61,1.61,0,0,1,.85-.84,3,3,0,0,1,1.07-.2,4.51,4.51,0,0,1,.7.06,1.68,1.68,0,0,1,1.28.9,2.42,2.42,0,0,1,.23,1.14v6.14h-1.32v-5.6a3.81,3.81,0,0,0,0-.59,1.43,1.43,0,0,0-.2-.51,1,1,0,0,0-.39-.34,1.34,1.34,0,0,0-.65-.13,2.44,2.44,0,0,0-.55.05,1.24,1.24,0,0,0-.44.26,1,1,0,0,0-.23.32,2.35,2.35,0,0,0-.14.4,2.76,2.76,0,0,0-.06.4c0,.12,0,.23,0,.3v5.44Z"/>
    <path class="b39fd623-fc62-4d4b-b863-d4614c504bd7" d="M397.11,408.21v1.28h-3v10.27H392.6V409.49h-3v-1.28Z"/>
    <path class="b39fd623-fc62-4d4b-b863-d4614c504bd7" d="M401.41,420a3.42,3.42,0,0,1-2.73-1,5.2,5.2,0,0,1-.9-3.43v-3.8a4,4,0,0,1,.9-2.75,4.18,4.18,0,0,1,5.47,0,4,4,0,0,1,.9,2.75v3.8a5.2,5.2,0,0,1-.9,3.43A3.43,3.43,0,0,1,401.41,420Zm0-1.23a2.78,2.78,0,0,0,.92-.14,1.35,1.35,0,0,0,.67-.49,2.54,2.54,0,0,0,.41-1,7.51,7.51,0,0,0,.13-1.56v-3.9a3.21,3.21,0,0,0-.26-1.42,2,2,0,0,0-.63-.74,1.65,1.65,0,0,0-.71-.29,4.72,4.72,0,0,0-.53-.05,4.8,4.8,0,0,0-.52.05,1.68,1.68,0,0,0-.72.29,1.94,1.94,0,0,0-.62.74,3.08,3.08,0,0,0-.26,1.42v3.9a7.51,7.51,0,0,0,.13,1.56,2.54,2.54,0,0,0,.41,1,1.37,1.37,0,0,0,.66.49A2.87,2.87,0,0,0,401.41,418.77Z"/>
    <path class="b39fd623-fc62-4d4b-b863-d4614c504bd7" d="M408.25,414.45v5.31h-1.48V408.21h4a2.94,2.94,0,0,1,1.29.25,2.28,2.28,0,0,1,.86.65,2.44,2.44,0,0,1,.47.92,3.77,3.77,0,0,1,.15,1.06,2.82,2.82,0,0,1-.55,1.74,2.38,2.38,0,0,1-1.57.9v0a3.92,3.92,0,0,1,.84.22,1.32,1.32,0,0,1,.57.48,2.36,2.36,0,0,1,.34.87,9.25,9.25,0,0,1,.14,1.41c0,.12,0,.32,0,.58s.05.54.09.85.08.6.13.89.1.52.15.7h-1.53a2.34,2.34,0,0,1-.24-.72c0-.28-.08-.58-.1-.92s0-.69-.05-1.06,0-.76-.06-1.14a1.62,1.62,0,0,0-.26-.82,1.3,1.3,0,0,0-.47-.44,1.44,1.44,0,0,0-.54-.18l-.48,0Zm0-1.28h2.2a1.54,1.54,0,0,0,.7-.16,1.45,1.45,0,0,0,.49-.43,1.86,1.86,0,0,0,.29-.6,2.92,2.92,0,0,0,.09-.73,2.37,2.37,0,0,0-.08-.63,1.52,1.52,0,0,0-.26-.56,1.46,1.46,0,0,0-.48-.41,1.49,1.49,0,0,0-.73-.16h-2.22Z"/>
  </g>
  <path class="fdf5e2ca-49aa-49e0-a1d6-952a198b4449" d="M298.05,323.34a19.86,19.86,0,1,1-5.11-13.28A19.84,19.84,0,0,1,298.05,323.34Z"/>
  <path class="a2e03e02-27ef-43db-9d40-226335174a44" d="M416,323.34a19.84,19.84,0,1,1-4.53-12.62A19.84,19.84,0,0,1,416,323.34Z"/>
  <g>
    <path class="a778d141-2057-456a-9e90-8a32e09cbab9" d="M266.66,329.23h-1.38V317.68h2.38l2.92,9.69h0l2.94-9.69H276v11.55h-1.47V319h0l-3.23,10.27h-1.39L266.69,319h0Z"/>
    <path class="a778d141-2057-456a-9e90-8a32e09cbab9" d="M277.79,329.23V317.68h5.95V319h-4.48v3.71h4.16V324h-4.16v4h4.58v1.28Z"/>
    <path class="a778d141-2057-456a-9e90-8a32e09cbab9" d="M285,329.23V317.68h1.47v5.07h.05l4-5.07h1.67L288,322.89l4.43,6.34h-1.89l-4.05-6h-.05v6Z"/>
  </g>
  <g>
    <path class="b39fd623-fc62-4d4b-b863-d4614c504bd7" d="M387.62,317.68h1.88l3.75,11.55h-1.64l-.84-2.75h-4.46l-.86,2.75H384Zm.9,1.36h0l-1.81,6.16h3.7Z"/>
    <path class="b39fd623-fc62-4d4b-b863-d4614c504bd7" d="M394,329.23V317.68h1.47v5.07h.05l4-5.07h1.67l-4.2,5.21,4.44,6.34h-1.89l-4.05-6h-.05v6Z"/>
    <path class="b39fd623-fc62-4d4b-b863-d4614c504bd7" d="M408.57,317.68V319h-3v10.27h-1.48V319h-3v-1.28Z"/>
  </g>
  <g>
    <line class="a38a9f95-4f76-468e-b65d-c8d61205670c" x1="376.3" y1="275.41" x2="415.9" y2="275.41"/>
    <polygon class="a2ba1869-dab3-4055-8089-a535f90a97d1" points="424.38 275.41 412.44 280.29 415.27 275.41 412.44 270.53 424.38 275.41"/>
  </g>
  <polygon class="a4830060-0e85-44c2-8094-1da4b9c6ee68" points="181.96 121.53 180.44 121.98 131.92 136.38 132.72 139.1 181.24 124.7 182.76 124.25 182.74 124.26 182.42 126.61 189.85 120.67 180.38 119.74 181.93 121.53 181.96 121.53"/>
  <polygon class="a4830060-0e85-44c2-8094-1da4b9c6ee68" points="145.22 150.96 146.74 150.51 195.25 136.11 194.45 133.4 145.93 147.8 144.41 148.25 144.44 148.23 144.75 145.89 137.32 151.83 146.79 152.75 145.25 150.96 145.22 150.96"/>
</svg>
